<?xml version="1.0" encoding="UTF-8"?>
<svg version="1.1" xmlns="http://www.w3.org/2000/svg" width="476" height="450">
<path d="M0 0 C1.28318115 0.05365723 1.28318115 0.05365723 2.59228516 0.10839844 C51.71430666 2.48010485 99.84584083 19.82765862 138 51 C138.77537109 51.62310059 138.77537109 51.62310059 139.56640625 52.25878906 C146.49966999 57.8420254 152.98982473 63.79596973 159.3125 70.0625 C159.97749512 70.71822998 160.64249023 71.37395996 161.32763672 72.04956055 C161.93752441 72.66355713 162.54741211 73.27755371 163.17578125 73.91015625 C163.72145752 74.45808838 164.26713379 75.00602051 164.8293457 75.57055664 C166 77 166 77 166 79 C166.66 79 167.32 79 168 79 C169.34106445 80.44946289 169.34106445 80.44946289 170.86328125 82.47265625 C171.42080078 83.20806641 171.97832031 83.94347656 172.55273438 84.70117188 C173.13345703 85.48041016 173.71417969 86.25964844 174.3125 87.0625 C174.88162109 87.81466797 175.45074219 88.56683594 176.03710938 89.34179688 C177.70396325 91.55214846 179.35452102 93.77370463 181 96 C181.5057959 96.67659668 182.0115918 97.35319336 182.53271484 98.05029297 C186 102.76418752 186 102.76418752 186 105 C186.66 105.33 187.32 105.66 188 106 C207.46810882 135.58389086 219.7270585 172.46385995 221.7890625 207.8125 C221.87196797 210.0433515 221.87196797 210.0433515 223 212 C226.93035092 247.00080926 215.52632365 285.56349257 200.92041016 316.81542969 C200.05545323 318.86838315 199.4723896 320.82688402 199 323 C198.34 323 197.68 323 197 323 C196.76925781 323.65355469 196.53851563 324.30710937 196.30078125 324.98046875 C188.78230217 342.43327453 175.68366728 357.23453591 162.828125 370.9609375 C160.95534231 372.86924134 160.95534231 372.86924134 160 375 C159.34 375 158.68 375 158 375 C157.62875 375.86625 157.62875 375.86625 157.25 376.75 C155.81700012 379.32939979 154.21575324 381.06121592 152 383 C151.34 383 150.68 383 150 383 C150 383.66 150 384.32 150 385 C147.95350387 386.77100626 145.9004721 388.42587726 143.75 390.0625 C142.79371704 390.79895752 142.79371704 390.79895752 141.81811523 391.55029297 C140.50641051 392.5583427 139.19251008 393.56354155 137.87646484 394.56591797 C136.21642698 395.8345964 134.57003078 397.12108133 132.92578125 398.41015625 C125.31555279 404.29692233 117.33959622 409.24037009 109 414 C108.12915771 414.50829346 108.12915771 414.50829346 107.24072266 415.02685547 C61.87684688 441.39581475 2.35196862 449.64478598 -49 440 C-49.33 440.66 -49.66 441.32 -50 442 C-50.33 441.34 -50.66 440.68 -51 440 C-53.26537691 439.26557193 -53.26537691 439.26557193 -56.046875 438.73828125 C-57.10962646 438.51003662 -58.17237793 438.28179199 -59.26733398 438.04663086 C-60.41661377 437.80436768 -61.56589355 437.56210449 -62.75 437.3125 C-77.96191371 433.95475981 -93.06269615 429.88107038 -107.0390625 422.84765625 C-109.10290477 421.80160688 -109.10290477 421.80160688 -112 422 C-112.33 421.34 -112.66 420.68 -113 420 C-115.37924229 418.75202008 -117.75925063 417.58221022 -120.1875 416.4375 C-132.207512 410.5841131 -142.880242 403.3415175 -153.35546875 395.06640625 C-156.00810099 392.9402772 -156.00810099 392.9402772 -159 391 C-159 390.34 -159 389.68 -159 389 C-159.81210938 388.66355469 -159.81210938 388.66355469 -160.640625 388.3203125 C-163.73778049 386.58713608 -166.18059254 384.28950109 -168.75 381.875 C-169.28294678 381.37782471 -169.81589355 380.88064941 -170.36499023 380.3684082 C-171.43121761 379.36985734 -172.49499629 378.36868456 -173.55615234 377.36474609 C-174.75525621 376.23133544 -175.96427997 375.10843055 -177.17578125 373.98828125 C-186.3637704 365.21879264 -193.69419813 354.51128354 -201.22265625 344.328125 C-202.94086379 341.97049175 -202.94086379 341.97049175 -205 340 C-206.07910296 338.18844891 -207.11631831 336.3516862 -208.125 334.5 C-208.66382813 333.5203125 -209.20265625 332.540625 -209.7578125 331.53125 C-211 329 -211 329 -211 327 C-211.66 327 -212.32 327 -213 327 C-214.00460531 324.87717331 -215.00355602 322.75166979 -216 320.625 C-216.8353125 318.84996094 -216.8353125 318.84996094 -217.6875 317.0390625 C-219 314 -219 314 -219 312 C-219.66 311.67 -220.32 311.34 -221 311 C-221.73071289 309.26538086 -221.73071289 309.26538086 -222.41015625 307.02734375 C-223.43160768 303.7796027 -224.49962971 300.57119899 -225.68359375 297.37890625 C-228.7380208 289.03277681 -231.5166183 280.74920392 -233.4375 272.0625 C-233.60113037 271.32394775 -233.76476074 270.58539551 -233.93334961 269.82446289 C-234.69488021 266.1680117 -235.18278877 262.73620243 -235 259 C-235.66 258.67 -236.32 258.34 -237 258 C-237.64147254 254.1974566 -237.69767425 250.32887231 -237.87792969 246.47949219 C-238.01446367 243.70621389 -238.18442653 240.93565955 -238.3515625 238.1640625 C-241.55680053 180.00486193 -223.95044282 123.72528266 -185 80 C-184.55688477 79.4951709 -184.11376953 78.9903418 -183.65722656 78.47021484 C-155.79815678 46.77518111 -119.81198705 24.48525178 -80 11 C-79.29939453 10.76152344 -78.59878906 10.52304688 -77.87695312 10.27734375 C-53.20654344 2.04603451 -25.95107008 -1.13141173 0 0 Z M-74 122 C-78.33291998 130.18655608 -81.81349588 138.66373223 -85.25 147.25 C-85.8215727 148.66920752 -86.39359885 150.08823249 -86.96606445 151.50708008 C-88.10790465 154.33763132 -89.24809372 157.16883867 -90.38720703 160.00048828 C-92.63105167 165.5721999 -94.90763482 171.13044826 -97.1875 176.6875 C-97.88949548 178.39966884 -98.59133334 180.11190232 -99.29296875 181.82421875 C-99.71872192 182.86195435 -99.71872192 182.86195435 -100.15307617 183.9206543 C-100.75936421 185.40919716 -101.35913218 186.90040224 -101.95458984 188.39331055 C-103.09313018 191.23221646 -104.26063476 194.05795304 -105.43359375 196.8828125 C-106.15095703 198.61229126 -106.15095703 198.61229126 -106.8828125 200.37670898 C-107.13579102 200.98650604 -107.38876953 201.5963031 -107.64941406 202.22457886 C-116.4063678 223.34143838 -125.03056218 244.51024358 -133.49316406 265.74682617 C-136.03452028 272.11920147 -138.59757349 278.48169761 -141.203125 284.828125 C-141.46121948 285.45755005 -141.71931396 286.0869751 -141.98522949 286.73547363 C-143.21861282 289.74224947 -144.45591721 292.74730949 -145.69921875 295.75 C-146.35083984 297.33554687 -146.35083984 297.33554687 -147.015625 298.953125 C-147.40008789 299.88286133 -147.78455078 300.81259766 -148.18066406 301.77050781 C-149.11498105 303.91699482 -149.11498105 303.91699482 -149 306 C-138.44 306 -127.88 306 -117 306 C-115.35 301.38 -113.7 296.76 -112 292 C-110.31363869 287.67645665 -108.61295313 283.36486411 -106.875 279.0625 C-106.44574219 277.99193359 -106.01648438 276.92136719 -105.57421875 275.81835938 C-103.83681073 271.49622281 -102.09702877 267.18625938 -100.1953125 262.93359375 C-98.81133197 260.06492287 -98.81133197 260.06492287 -99 257 C-72.6 257.33 -46.2 257.66 -19 258 C-18.01 260.64 -17.02 263.28 -16 266 C-14.93094349 268.5920982 -13.85134559 271.17576171 -12.75 273.75390625 C-12.45061523 274.45845444 -12.15123047 275.16300262 -11.84277344 275.88890076 C-10.89676372 278.11411056 -9.9484176 280.33831557 -9 282.5625 C-8.36443018 284.05657548 -7.72901232 285.55071562 -7.09375 287.04492188 C-4.40473801 293.3671406 -1.70635475 299.68517225 1 306 C12.55 306 24.1 306 36 306 C33.54714484 298.56689304 33.54714484 298.56689304 30.58984375 291.44921875 C30.15736328 290.50369141 29.72488281 289.55816406 29.27929688 288.58398438 C28.83650391 287.62814453 28.39371094 286.67230469 27.9375 285.6875 C27.49083984 284.71232422 27.04417969 283.73714844 26.58398438 282.73242188 C24.37160505 277.89112167 24.37160505 277.89112167 22.04766846 273.10305786 C21.0444991 271.08932614 20.08462422 269.06198006 19.13989258 267.02026367 C18.78224319 266.24813034 18.42459381 265.47599701 18.05610657 264.6804657 C17.67278671 263.85134171 17.28946686 263.02221771 16.89453125 262.16796875 C16.49223801 261.2991658 16.08994476 260.43036285 15.67546082 259.53523254 C14.38723601 256.75291902 13.09982338 253.97023069 11.8125 251.1875 C0.48441865 226.68685579 0.48441865 226.68685579 -11.0546875 202.28515625 C-11.6115625 201.11533203 -11.6115625 201.11533203 -12.1796875 199.921875 C-12.50694824 199.23706055 -12.83420898 198.55224609 -13.17138672 197.84667969 C-14 196 -14 196 -15 193 C-16.0013436 190.92796768 -17.02450034 188.86641423 -18.0625 186.8125 C-18.61035156 185.72582031 -19.15820312 184.63914063 -19.72265625 183.51953125 C-20.14417969 182.68808594 -20.56570312 181.85664063 -21 181 C-22.32 181 -23.64 181 -25 181 C-25 180.34 -25 179.68 -25 179 C-23.515 179.495 -23.515 179.495 -22 180 C-23.20842856 175.56909529 -24.51668565 173.01887244 -28 170 C-27.505 169.01 -27.505 169.01 -27 168 C-27.52884142 166.22737587 -27.52884142 166.22737587 -28.484375 164.2734375 C-28.83749756 163.49983887 -29.19062012 162.72624023 -29.55444336 161.92919922 C-29.94897705 161.08631348 -30.34351074 160.24342773 -30.75 159.375 C-31.15033447 158.50504395 -31.55066895 157.63508789 -31.96313477 156.73876953 C-32.83534542 154.84405346 -33.71057063 152.95072298 -34.58837891 151.05859375 C-36.06978486 147.84879545 -37.52733125 144.62893777 -38.98046875 141.40625 C-39.96595507 139.22908031 -40.95162879 137.05199543 -41.9375 134.875 C-42.64567871 133.30177979 -42.64567871 133.30177979 -43.36816406 131.69677734 C-43.81256836 130.7217627 -44.25697266 129.74674805 -44.71484375 128.7421875 C-45.10792725 127.8744873 -45.50101074 127.00678711 -45.90600586 126.11279297 C-46.93636244 123.86177934 -46.93636244 123.86177934 -49 122 C-51.6215642 121.72172748 -51.6215642 121.72172748 -54.6640625 121.8046875 C-56.34628906 121.81435547 -56.34628906 121.81435547 -58.0625 121.82421875 C-59.238125 121.84097656 -60.41375 121.85773438 -61.625 121.875 C-62.80835938 121.88402344 -63.99171875 121.89304687 -65.2109375 121.90234375 C-68.14082523 121.92597188 -71.0703134 121.95891486 -74 122 Z M-8 122 C-6.38273181 125.79501113 -4.75488963 129.58539436 -3.125 133.375 C-2.66480469 134.45523438 -2.20460937 135.53546875 -1.73046875 136.6484375 C-1.28574219 137.6796875 -0.84101563 138.7109375 -0.3828125 139.7734375 C0.02565918 140.72653809 0.43413086 141.67963867 0.85498047 142.66162109 C1.90046521 145.11652773 1.90046521 145.11652773 4 147 C6.06170802 147.28493136 6.06170802 147.28493136 8.45532227 147.21118164 C9.38131729 147.20780289 10.30731232 147.20442413 11.2613678 147.20094299 C12.26953049 147.18748337 13.27769318 147.17402374 14.31640625 147.16015625 C15.36086411 147.15495468 16.40532196 147.14975311 17.48143005 147.14439392 C20.84192576 147.12653731 24.202121 147.09545668 27.5625 147.0625 C31.93877946 147.02560051 36.31502919 146.99523553 40.69140625 146.97265625 C42.278358 146.96427231 42.278358 146.96427231 43.89736938 146.95571899 C52.62966401 146.93899062 61.29618353 147.31913269 70 148 C70 148.33 70 148.66 70 149 C70.81082031 149.21914062 71.62164062 149.43828125 72.45703125 149.6640625 C89.9978861 154.68740394 103.06390646 163.25909929 112.04980469 179.22167969 C121.23978664 196.42101899 124.01407341 217.0447971 118.42919922 235.93017578 C115.58414337 244.43550755 111.72908802 252.04870653 106 259 C105.50242187 259.62132812 105.00484375 260.24265625 104.4921875 260.8828125 C91.91011649 274.98231921 72.75297656 277.89183403 55 280 C55.32613281 280.61746094 55.65226562 281.23492187 55.98828125 281.87109375 C58.51424114 286.76653814 60.65814875 291.48186168 62.12890625 296.796875 C63.32930761 299.83286768 65.13673187 302.33274501 67 305 C87.61264455 303.08254469 105.89969838 298.80025853 122 285 C122.58910156 284.55398438 123.17820312 284.10796875 123.78515625 283.6484375 C139.60012898 271.32788927 148.32066551 249.74073402 151.03100586 230.4753418 C154.13292504 205.2645138 149.35645905 177.7453293 133.65673828 157.24609375 C130.64260755 153.61497293 127.37451327 150.29546172 124 147 C123.29488281 146.27425781 122.58976563 145.54851562 121.86328125 144.80078125 C96.76281242 120.46527909 61.61453663 121.52739461 29.18157959 121.79400635 C24.97721969 121.82518176 20.77280253 121.83849909 16.56835938 121.85351562 C8.37875315 121.88529888 0.18941941 121.93622015 -8 122 Z " fill="#223149" transform="translate(245,4)"/>
<path d="M0 0 C0.99 0.33 1.98 0.66 3 1 C3.11754639 2.02351562 3.23509277 3.04703125 3.35620117 4.1015625 C3.971392 7.82676808 4.91622104 10.87426388 6.30078125 14.375 C6.77805664 15.59356689 7.25533203 16.81213379 7.74707031 18.06762695 C8.26886043 19.37842584 8.7906708 20.68921667 9.3125 22 C9.84685389 23.35929502 10.38036898 24.71892005 10.91308594 26.07885742 C12.02861942 28.92422112 13.14779921 31.76810691 14.27001953 34.61083984 C16.84929455 41.14854373 19.40220398 47.69646597 21.94662476 54.24780273 C22.74156395 56.29081911 23.54110795 58.33199076 24.34106445 60.37304688 C24.82652325 61.61971824 25.31180323 62.86645925 25.796875 64.11328125 C26.22323242 65.20423096 26.64958984 66.29518066 27.08886719 67.41918945 C28 70 28 70 28 72 C28.99 72.495 28.99 72.495 30 73 C30.33 73.99 30.66 74.98 31 76 C31.99 76.33 32.98 76.66 34 77 C32 79 32 79 29.44369507 79.20254517 C28.36447784 79.18033905 27.28526062 79.15813293 26.17333984 79.13525391 C24.95222504 79.11508209 23.73111023 79.09491028 22.47299194 79.0741272 C21.13563522 79.04182185 19.79828383 79.00929504 18.4609375 78.9765625 C17.09617757 78.95039859 15.73140018 78.92513132 14.36660767 78.90072632 C10.77264327 78.83404338 7.17904557 78.7551581 3.58538818 78.67376709 C-0.08095208 78.59287779 -3.74750761 78.52347861 -7.4140625 78.453125 C-14.60963582 78.31335626 -21.80486053 78.16070159 -29 78 C-29 74.65881092 -28.29731749 73.06907802 -27 70 C-26.48273177 68.66505506 -25.9708899 67.32800155 -25.46289062 65.98950195 C-25.17465927 65.23208206 -24.88642792 64.47466217 -24.58946228 63.69429016 C-24.28150223 62.88380722 -23.97354218 62.07332428 -23.65625 61.23828125 C-22.98446688 59.47265226 -22.31267283 57.70702742 -21.64086914 55.94140625 C-21.29089874 55.02117676 -20.94092834 54.10094727 -20.58035278 53.15283203 C-15.42376695 39.59576424 -10.2630934 26.0402571 -5.0625 12.5 C-4.65644531 11.44079346 -4.25039062 10.38158691 -3.83203125 9.2902832 C-3.4659375 8.33855225 -3.09984375 7.38682129 -2.72265625 6.40625 C-2.41078369 5.59478516 -2.09891113 4.78332031 -1.77758789 3.94726562 C-1 2 -1 2 0 0 Z " fill="#212F48" transform="translate(184,159)"/>
<path d="M0 0 C9.62334511 -0.02323754 19.24668046 -0.04097305 28.87004757 -0.05181217 C33.33923781 -0.05701612 37.80840875 -0.06406828 42.27758789 -0.07543945 C46.59587861 -0.08635713 50.91415084 -0.09229556 55.2324543 -0.09487724 C56.87455091 -0.09671555 58.51664659 -0.10030514 60.15873528 -0.10573006 C68.16455883 -0.131111 76.05637084 -0.14728077 84 1 C84 1.33 84 1.66 84 2 C57.27 2.33 30.54 2.66 3 3 C7.25369834 15.36368763 7.25369834 15.36368763 14 26 C15.5348297 26.09319449 17.07392082 26.117458 18.61157227 26.11352539 C20.08298424 26.11341209 20.08298424 26.11341209 21.5841217 26.11329651 C22.6507756 26.10813522 23.7174295 26.10297394 24.81640625 26.09765625 C25.9025975 26.0962413 26.98878876 26.09482635 28.1078949 26.09336853 C31.59279075 26.08775048 35.07762342 26.07519492 38.5625 26.0625 C40.91861887 26.05748733 43.27473874 26.05292402 45.63085938 26.04882812 C51.42059464 26.03777519 57.21029281 26.02101951 63 26 C63 26.66 63 27.32 63 28 C60.09560239 28.96813254 58.2718176 29.12144834 55.25317383 29.11352539 C54.29240433 29.11344986 53.33163483 29.11337433 52.3417511 29.11329651 C51.30729355 29.10813522 50.272836 29.10297394 49.20703125 29.09765625 C47.61528328 29.09553383 47.61528328 29.09553383 45.99137878 29.09336853 C42.59839065 29.08776606 39.20546823 29.07521314 35.8125 29.0625 C33.51367283 29.05748532 31.21484462 29.05292236 28.91601562 29.04882812 C23.27732128 29.03779583 17.63866534 29.0210553 12 29 C10.17870558 25.10821907 8.36952407 21.21092491 6.5625 17.3125 C6.04623047 16.20970703 5.52996094 15.10691406 4.99804688 13.97070312 C4.50498047 12.90400391 4.01191406 11.83730469 3.50390625 10.73828125 C3.04830322 9.75899658 2.5927002 8.77971191 2.12329102 7.77075195 C1.06262704 5.15447823 0.51063847 2.76450351 0 0 Z " fill="#161C26" transform="translate(235,124)"/>
<path d="M0 0 C10.39614413 -0.04627317 20.7922639 -0.08184359 31.18848991 -0.10362434 C36.01550805 -0.11407626 40.84245591 -0.12826104 45.66943359 -0.15087891 C50.32485778 -0.17255722 54.98021422 -0.18455801 59.63568497 -0.18975449 C61.41475619 -0.19345928 63.19382356 -0.20069348 64.97286606 -0.21146011 C67.45839294 -0.22590854 69.94363733 -0.22798075 72.42919922 -0.22705078 C73.54050201 -0.23783661 73.54050201 -0.23783661 74.67425537 -0.24884033 C79.77189568 -0.22810432 79.77189568 -0.22810432 82 2 C82.68017578 3.98291016 82.68017578 3.98291016 83.3203125 6.4140625 C85.00719093 12.30861259 87.375263 17.78581575 89.875 23.375 C90.76611215 25.39822301 91.65674203 27.4216585 92.546875 29.4453125 C92.97033203 30.4034082 93.39378906 31.36150391 93.83007812 32.34863281 C95.28269077 35.64065562 96.71636482 38.93889777 98.125 42.25 C98.49882812 43.12140625 98.87265625 43.9928125 99.2578125 44.890625 C100 47 100 47 100 50 C99.34 50 98.68 50 98 50 C97.71390869 49.32235596 97.42781738 48.64471191 97.13305664 47.9465332 C95.77677671 44.7349468 94.41963557 41.52372492 93.0625 38.3125 C92.61326172 37.24837891 92.16402344 36.18425781 91.70117188 35.08789062 C87.17242214 24.37505503 82.58179533 13.69085577 78 3 C52.92 3 27.84 3 2 3 C0.02 7.455 0.02 7.455 -2 12 C-3.01527342 7.93890631 -3.05430484 7.33033162 -1.5625 3.75 C-1.27503906 3.04359375 -0.98757812 2.3371875 -0.69140625 1.609375 C-0.46324219 1.07828125 -0.23507813 0.5471875 0 0 Z " fill="#171D29" transform="translate(146,261)"/>
<path d="M0 0 C3.03404299 2.57893654 4.30181984 5.46244744 5.90625 9.0703125 C6.18358475 9.68770294 6.46091949 10.30509338 6.74665833 10.94119263 C7.35173597 12.28977029 7.95376879 13.63971724 8.5531311 14.99084473 C10.19213508 18.68500872 11.85334586 22.36918836 13.51171875 26.0546875 C13.86509811 26.84157959 14.21847748 27.62847168 14.58256531 28.43920898 C19.48344285 39.33206779 24.54187689 50.15253618 29.58398438 60.98052979 C30.3993257 62.73180966 31.21417818 64.48331723 32.02848816 66.2350769 C32.77102635 67.83241936 33.51469596 69.42923654 34.25971985 71.02542114 C35.94365341 74.64862222 37.56668417 78.26795276 39 82 C38.01 82 37.02 82 36 82 C35.43285278 80.75126099 35.43285278 80.75126099 34.85424805 79.47729492 C33.44504097 76.38300196 32.02987132 73.29158437 30.6105957 70.2019043 C29.99816386 68.86543903 29.38811241 67.52788023 28.78051758 66.18920898 C27.90552947 64.26251807 27.02198789 62.33995343 26.13671875 60.41796875 C25.60780029 59.26063232 25.07888184 58.1032959 24.53393555 56.91088867 C23.18534137 54.35171496 22.04638737 52.94731415 20 51 C19.855625 50.113125 19.71125 49.22625 19.5625 48.3125 C18.9339485 44.61103005 17.61882831 42.00112245 15.83984375 38.734375 C15 37 15 37 15 35 C13.68 35 12.36 35 11 35 C11 34.34 11 33.68 11 33 C11.99 32.505 11.99 32.505 13 32 C11.11470951 27.84853466 11.11470951 27.84853466 8.3125 24.3125 C7.879375 23.879375 7.44625 23.44625 7 23 C7 22.01 7 21.02 7 20 C5.57044131 16.59021078 4.05025713 13.2426847 2.48828125 9.89257812 C2.17246094 9.19712891 1.85664063 8.50167969 1.53125 7.78515625 C1.09135742 6.83974976 1.09135742 6.83974976 0.64257812 5.87524414 C0 4 0 4 0 0 Z " fill="#151B28" transform="translate(209,150)"/>
<path d="M0 0 C1.47919922 0.11758667 1.47919922 0.11758667 2.98828125 0.23754883 C9.62003625 0.81782739 16.09718513 1.82454311 22.625 3.125 C22.625 3.785 22.625 4.445 22.625 5.125 C20.68742096 4.98022064 18.74994176 4.83410502 16.8125 4.6875 C15.73355469 4.60628906 14.65460938 4.52507813 13.54296875 4.44140625 C11.4315215 4.27089057 9.320325 4.09487933 7.21228027 3.88647461 C0.77700905 3.25471555 -5.61069521 2.92786605 -12.07421875 2.80859375 C-13.0352803 2.78781265 -13.99634186 2.76703156 -14.98652649 2.74562073 C-18.01178886 2.68101347 -21.03712672 2.62166006 -24.0625 2.5625 C-26.1321688 2.51922997 -28.20183038 2.47561321 -30.27148438 2.43164062 C-35.30591517 2.32542531 -40.34042073 2.22391681 -45.375 2.125 C-45.375 1.465 -45.375 0.805 -45.375 0.125 C-30.14785525 -1.02267174 -15.23435035 -1.22687239 0 0 Z " fill="#1A202A" transform="translate(257.375,4.875)"/>
<path d="M0 0 C0 0.66 0 1.32 0 2 C-44.77054732 5.83150695 -44.77054732 5.83150695 -62 3 C-62.66 2.34 -63.32 1.68 -64 1 C-56.3319713 0.85641671 -48.66391912 0.7141407 -40.99584961 0.57275391 C-38.38972429 0.52454924 -35.78360439 0.47605034 -33.17749023 0.42724609 C-29.42172629 0.35696447 -25.66594381 0.28775689 -21.91015625 0.21875 C-20.75354996 0.19687622 -19.59694366 0.17500244 -18.4052887 0.15246582 C-12.26888041 0.04082584 -6.13741927 -0.02272066 0 0 Z " fill="#1A202E" transform="translate(274,443)"/>
<path d="M0 0 C2.59370789 1.29685394 2.80183393 2.39309912 3.9609375 5.0234375 C4.34378906 5.87035156 4.72664063 6.71726562 5.12109375 7.58984375 C5.53488281 8.50894531 5.94867188 9.42804688 6.375 10.375 C13.7112419 26.19444787 23.02525642 40.47581378 34 54 C31 54 31 54 29.60546875 52.68652344 C29.13753906 52.08356445 28.66960938 51.48060547 28.1875 50.859375 C27.66929688 50.20066406 27.15109375 49.54195313 26.6171875 48.86328125 C26.08351563 48.16589844 25.54984375 47.46851563 25 46.75 C24.46632813 46.06808594 23.93265625 45.38617188 23.3828125 44.68359375 C21.91055267 42.79748974 20.45397546 40.90020765 19 39 C18.44699219 38.29617188 17.89398438 37.59234375 17.32421875 36.8671875 C15.62143891 34.46621769 14.22239373 31.95806455 12.8125 29.375 C12.01779297 27.93253906 12.01779297 27.93253906 11.20703125 26.4609375 C10 24 10 24 10 22 C9.34 22 8.68 22 8 22 C6.99539469 19.87717331 5.99644398 17.75166979 5 15.625 C4.443125 14.44164062 3.88625 13.25828125 3.3125 12.0390625 C2 9 2 9 2 7 C1.34 6.67 0.68 6.34 0 6 C0 4.02 0 2.04 0 0 Z " fill="#181D28" transform="translate(24,309)"/>
<path d="M0 0 C1.98 0.99 1.98 0.99 4 2 C4 2.66 4 3.32 4 4 C4.66 4.33 5.32 4.66 6 5 C15.60033742 19.58874804 31.03611345 44.14067604 30 62 C28 61 28 61 27.25732422 59.22851562 C27.0254541 58.46216797 26.79358398 57.69582031 26.5546875 56.90625 C26.2870459 56.04974854 26.0194043 55.19324707 25.74365234 54.31079102 C25.45699707 53.38322998 25.1703418 52.45566895 24.875 51.5 C19.17471425 33.8767406 10.70549379 18.64319741 1.06640625 2.86328125 C0 1 0 1 0 0 Z " fill="#171D27" transform="translate(427,105)"/>
<path d="M0 0 C0 0.66 0 1.32 0 2 C-4.27228008 4.00210773 -8.4837947 4.57639926 -13.125 5.0625 C-18.63764716 5.63700282 -18.63764716 5.63700282 -24 7 C-23.39816251 9.02045442 -22.72693904 11.02111039 -22 13 C-21.34 13.33 -20.68 13.66 -20 14 C-19.65657551 15.33076989 -19.32380126 16.66431979 -19 18 C-18.34 18.66 -17.68 19.32 -17 20 C-16.42440161 21.50096232 -15.90869583 23.02556282 -15.4375 24.5625 C-14.66788364 27.5425132 -14.66788364 27.5425132 -13 30 C-10.98405418 30.23427778 -8.961526 30.41336124 -6.9375 30.5625 C-5.83277344 30.64628906 -4.72804688 30.73007812 -3.58984375 30.81640625 C-2.73519531 30.87699219 -1.88054687 30.93757813 -1 31 C-1 31.33 -1 31.66 -1 32 C-5.62 32.33 -10.24 32.66 -15 33 C-16.7365033 29.35614799 -18.46671276 25.7102487 -20.18188477 22.05639648 C-20.76721823 20.81416536 -21.35606915 19.57358535 -21.94848633 18.3347168 C-22.79910039 16.5543452 -23.63607819 14.76747868 -24.47265625 12.98046875 C-25.23461304 11.37014771 -25.23461304 11.37014771 -26.01196289 9.72729492 C-27 7 -27 7 -26 4 C-22.04210568 3.33070912 -18.08361542 2.66501144 -14.125 2 C-12.99707031 1.80921875 -11.86914062 1.6184375 -10.70703125 1.421875 C-9.63066406 1.24140625 -8.55429687 1.0609375 -7.4453125 0.875 C-6.45031738 0.70742188 -5.45532227 0.53984375 -4.43017578 0.3671875 C-2 0 -2 0 0 0 Z " fill="#131925" transform="translate(325,278)"/>
<path d="M0 0 C8.92134894 13.38202341 5.53011488 36.22609012 2.8515625 51.1015625 C2.15402013 54.29489868 1.34658143 57.03752085 0 60 C-0.33 60 -0.66 60 -1 60 C-0.87625 58.72125 -0.7525 57.4425 -0.625 56.125 C-0.49351562 54.75408203 -0.49351562 54.75408203 -0.359375 53.35546875 C-0.09308762 50.86915503 0.20954769 48.40238326 0.546875 45.92578125 C2.09275886 34.17628383 2.16819677 23.0419343 0.4609375 11.2890625 C-0.07724878 7.44878415 -0.06789508 3.87001933 0 0 Z " fill="#161C28" transform="translate(394,191)"/>
<path d="M0 0 C5.1715408 0.56927038 9.12149036 2.22788324 13.6875 4.5625 C14.39229492 4.92182617 15.09708984 5.28115234 15.82324219 5.65136719 C28.41241055 12.22437119 41.99347005 22.29528475 49 35 C48.75 37.375 48.75 37.375 48 39 C47.52691406 38.31035156 47.05382812 37.62070313 46.56640625 36.91015625 C39.4965386 26.86350221 31.68738355 18.28313097 21 12 C20.34 12 19.68 12 19 12 C18.57460938 11.5565625 18.14921875 11.113125 17.7109375 10.65625 C15.55030208 8.56467598 13.38474589 7.67950783 10.625 6.5 C6.89923954 4.89884674 3.39900706 3.22480462 0 1 C0 0.67 0 0.34 0 0 Z " fill="#19202D" transform="translate(334,129)"/>
<path d="M0 0 C1.4650113 4.50371428 -0.13630407 7.58005406 -1.9375 11.75 C-2.22818359 12.44738281 -2.51886719 13.14476562 -2.81835938 13.86328125 C-3.53551703 15.57975695 -4.26643402 17.29047232 -5 19 C-0.65761978 18.95579887 3.68336747 18.88591932 8.02490234 18.79248047 C9.50102196 18.76429912 10.97729169 18.74307034 12.45361328 18.72900391 C14.57923057 18.70753302 16.70304879 18.66086957 18.828125 18.609375 C20.1059082 18.58842773 21.38369141 18.56748047 22.70019531 18.54589844 C26.47561433 17.92131743 27.66406461 16.95336325 30 14 C29.125 18.75 29.125 18.75 28 21 C16.45 21 4.9 21 -7 21 C-8.17189558 17.48431326 -7.83725505 17.0008148 -6.34765625 13.76953125 C-5.98349609 12.96708984 -5.61933594 12.16464844 -5.24414062 11.33789062 C-4.65922852 10.08782227 -4.65922852 10.08782227 -4.0625 8.8125 C-3.67642578 7.96751953 -3.29035156 7.12253906 -2.89257812 6.25195312 C-1.93699299 4.16382265 -0.97256217 2.08026396 0 0 Z " fill="#1C2735" transform="translate(101,291)"/>
<path d="M0 0 C0.33 0 0.66 0 1 0 C1.54626706 10.47233918 -3.54949317 20.18877893 -10.234375 28.05078125 C-10.81703125 28.69402344 -11.3996875 29.33726562 -12 30 C-12.52078125 30.61230469 -13.0415625 31.22460938 -13.578125 31.85546875 C-18.58485447 37.36044072 -26.25268895 43.68308142 -33.8671875 44.19140625 C-34.92292969 44.09666016 -34.92292969 44.09666016 -36 44 C-33.01320798 41.62462188 -29.95392666 39.86539925 -26.5625 38.125 C-22.25191603 35.82602188 -19.26438459 33.58029278 -16 30 C-15.34 30 -14.68 30 -14 30 C-13.73832031 29.43925781 -13.47664063 28.87851562 -13.20703125 28.30078125 C-11.88082371 25.77283225 -10.31300787 23.53385393 -8.6875 21.1875 C-4.38797578 14.54932243 -2.20419212 7.52675742 0 0 Z " fill="#141A25" transform="translate(363,234)"/>
<path d="M0 0 C0.33 0 0.66 0 1 0 C1.11480713 0.69222656 1.22961426 1.38445312 1.34790039 2.09765625 C4.51358159 20.87832673 8.86740765 38.96474071 15 57 C12 56 12 56 11.08032227 54.33618164 C10.82822998 53.61809326 10.5761377 52.90000488 10.31640625 52.16015625 C10.03031494 51.35263916 9.74422363 50.54512207 9.44946289 49.71313477 C9.15676514 48.83842529 8.86406738 47.96371582 8.5625 47.0625 C8.25755615 46.17038818 7.9526123 45.27827637 7.63842773 44.35913086 C0.51387911 22.93631103 0.51387911 22.93631103 1 13 C0.34 12.67 -0.32 12.34 -1 12 C-0.67 8.04 -0.34 4.08 0 0 Z " fill="#161C26" transform="translate(9,250)"/>
<path d="M0 0 C0.33 0 0.66 0 1 0 C1.51602585 23.02269182 0.79903433 44.5613942 -5 67 C-5.66 67 -6.32 67 -7 67 C-6.24890486 59.34821828 -4.92509224 51.89123613 -3.4609375 44.34765625 C-1.42415489 33.54054852 -0.82973137 22.78854843 -0.4375 11.8125 C-0.37272461 10.09836914 -0.37272461 10.09836914 -0.30664062 8.34960938 C-0.20183704 5.56649189 -0.09966701 2.78330535 0 0 Z " fill="#0C1219" transform="translate(465,217)"/>
<path d="M0 0 C9.57 0 19.14 0 29 0 C30.98 3.96 32.96 7.92 35 12 C34.01 12 33.02 12 32 12 C30.35 9.03 28.7 6.06 27 3 C18.75 3 10.5 3 2 3 C0.35 6.3 -1.3 9.6 -3 13 C-3.66 13 -4.32 13 -5 13 C-4.54554036 11.58208592 -4.08625056 10.16571954 -3.625 8.75 C-3.24214844 7.56664062 -3.24214844 7.56664062 -2.8515625 6.359375 C-2 4 -2 4 0 0 Z " fill="#121823" transform="translate(169,124)"/>
<path d="M0 0 C0.66 0.33 1.32 0.66 2 1 C-9.05656579 11.36982257 -21.85078481 19.55790946 -35 27 C-36.051875 27.59941406 -37.10375 28.19882812 -38.1875 28.81640625 C-41.26215948 30.11032545 -41.96668216 29.95440715 -45 29 C-44.46125244 28.70359619 -43.92250488 28.40719238 -43.36743164 28.10180664 C-28.14544008 19.6909891 -13.67452612 10.77155409 0 0 Z " fill="#151B25" transform="translate(386,393)"/>
<path d="M0 0 C5.07816159 0.45680614 8.37160798 2.16419598 12.3125 5.25 C12.87646484 5.68965088 13.44042969 6.12930176 14.02148438 6.58227539 C22.75437515 13.73425462 29.69133074 24.20941534 33 35 C33.12109375 38.31640625 33.12109375 38.31640625 33 41 C30.68911949 38.68911949 30.29260012 37.15358499 29.3125 34.0625 C24.07344724 19.23792108 14.10607875 7.81422314 0 1 C0 0.67 0 0.34 0 0 Z " fill="#131A26" transform="translate(330,159)"/>
<path d="M0 0 C0.66 0.33 1.32 0.66 2 1 C1.46632813 1.83917969 0.93265625 2.67835937 0.3828125 3.54296875 C-7.6417776 16.40853945 -14.11839861 30.03593993 -20 44 C-20.33 44 -20.66 44 -21 44 C-20.45814796 38.84579764 -19.25256798 34.49289321 -17.125 29.75 C-16.82762939 29.07759277 -16.53025879 28.40518555 -16.22387695 27.71240234 C-6.57582827 6.57582827 -6.57582827 6.57582827 0 0 Z " fill="#181E2A" transform="translate(42,108)"/>
<path d="M0 0 C2.27804239 2.87928525 4.04034684 5.7830329 5.6875 9.0625 C6.12449219 9.91972656 6.56148438 10.77695312 7.01171875 11.66015625 C8 14 8 14 8 17 C-4.21 17 -16.42 17 -29 17 C-29 16.67 -29 16.34 -29 16 C-24.70394268 15.17777446 -20.66033397 14.88229205 -16.2890625 14.90234375 C-15.04511719 14.90556641 -13.80117188 14.90878906 -12.51953125 14.91210938 C-11.23433594 14.92048828 -9.94914062 14.92886719 -8.625 14.9375 C-7.31660156 14.94201172 -6.00820313 14.94652344 -4.66015625 14.95117188 C-1.44005719 14.96292406 1.7799477 14.97935457 5 15 C4.45859375 13.87851562 4.45859375 13.87851562 3.90625 12.734375 C3.4421875 11.74953125 2.978125 10.7646875 2.5 9.75 C2.0359375 8.77546875 1.571875 7.8009375 1.09375 6.796875 C0 4 0 4 0 0 Z " fill="#101824" transform="translate(276,295)"/>
<path d="M0 0 C12.44527286 0.45255538 24.32665027 6.05646748 35.5 11.1875 C36.23605469 11.52015869 36.97210938 11.85281738 37.73046875 12.19555664 C39.52836852 13.04806078 41.27071457 14.01573438 43 15 C43.495 16.485 43.495 16.485 44 18 C39.08055083 16.48098513 34.53534343 14.46612016 29.875 12.3125 C20.13726783 7.88458397 10.13869715 4.38662118 0 1 C0 0.67 0 0.34 0 0 Z " fill="#151B27" transform="translate(302,15)"/>
<path d="M0 0 C3.0311181 3.01904193 6.04106452 6.05742136 9.0390625 9.109375 C17.02344131 17.20491332 24.89943496 25.14450827 34 32 C33.01 32.33 32.02 32.66 31 33 C28.8125 31.6875 28.8125 31.6875 27 30 C27 29.34 27 28.68 27 28 C26.45859375 27.77570313 25.9171875 27.55140625 25.359375 27.3203125 C22.26208473 25.58706066 19.81997427 23.28902032 17.25 20.875 C16.722854 20.38507568 16.19570801 19.89515137 15.65258789 19.39038086 C2.9800276 7.55609082 2.9800276 7.55609082 0 3 C0 2.01 0 1.02 0 0 Z " fill="#191F2B" transform="translate(59,365)"/>
<path d="M0 0 C0.66 0 1.32 0 2 0 C2 14.52 2 29.04 2 44 C1.34 43.67 0.68 43.34 0 43 C-0.73273428 28.59288216 -1.30212156 14.38343509 0 0 Z " fill="#141923" transform="translate(7,205)"/>
<path d="M0 0 C4.03082 1.612328 6.75944137 4.46234596 9.75 7.5 C10.25660156 7.99886719 10.76320313 8.49773437 11.28515625 9.01171875 C15 12.74658861 15 12.74658861 15 15 C15.66 15 16.32 15 17 15 C19.28566956 17.41599464 21.19824729 20.15024349 23.1875 22.8125 C23.75919922 23.55048828 24.33089844 24.28847656 24.91992188 25.04882812 C25.72333008 26.11713867 25.72333008 26.11713867 26.54296875 27.20703125 C27.03821045 27.8616333 27.53345215 28.51623535 28.04370117 29.19067383 C28.35927979 29.78775146 28.6748584 30.3848291 29 31 C28.67 31.99 28.34 32.98 28 34 C27.00033203 32.69289063 27.00033203 32.69289063 25.98046875 31.359375 C18.63320418 21.8338974 10.94838807 12.76762361 2.3125 4.375 C0 2 0 2 0 0 Z " fill="#161C26" transform="translate(396,68)"/>
<path d="M0 0 C0.33 0 0.66 0 1 0 C0.52877252 6.9113364 -2.20636006 12.72204161 -5 19 C-4.34 19.33 -3.68 19.66 -3 20 C-3.99 20 -4.98 20 -6 20 C-6.17015625 20.53367188 -6.3403125 21.06734375 -6.515625 21.6171875 C-8.43463324 27.5171171 -10.64054239 33.26304469 -13 39 C-13.66 39 -14.32 39 -15 39 C-14.40075009 34.02317874 -12.82697821 29.7551764 -10.83984375 25.1953125 C-10.53051407 24.4713327 -10.22118439 23.74735291 -9.90248108 23.00143433 C-8.92031138 20.70658969 -7.92907087 18.41579591 -6.9375 16.125 C-6.26697361 14.56275933 -5.59704535 13.00026178 -4.92773438 11.4375 C-3.29206294 7.6219927 -1.64824905 3.81008983 0 0 Z " fill="#131925" transform="translate(149,173)"/>
<path d="M0 0 C4.74793161 0.49791043 7.89547546 2.72606299 11.625 5.5 C12.23601562 5.94561279 12.84703125 6.39122559 13.4765625 6.8503418 C19.15478178 11.02989565 24.60803375 15.45751433 30 20 C31.22882869 21.02124015 32.45792753 22.04215548 33.6875 23.0625 C34.450625 23.701875 35.21375 24.34125 36 25 C35.505 26.485 35.505 26.485 35 28 C34.41476562 27.42894531 33.82953125 26.85789062 33.2265625 26.26953125 C23.79369042 17.36070762 13.3239598 9.75449419 2.45703125 2.6796875 C1.64621094 2.12539063 0.83539063 1.57109375 0 1 C0 0.67 0 0.34 0 0 Z " fill="#171D29" transform="translate(359,40)"/>
<path d="M0 0 C1.06855378 3.20566134 0.97542609 3.89534238 0.109375 7 C-0.10436768 7.79631836 -0.31811035 8.59263672 -0.53833008 9.41308594 C-0.77318115 10.26676758 -1.00803223 11.12044922 -1.25 12 C-3.87052424 21.92062117 -5.58702247 31.84494195 -7 42 C-7.33 42 -7.66 42 -8 42 C-8.74833948 33.33589185 -7.52071144 25.50915351 -5.6875 17.0625 C-5.47456299 16.06790771 -5.26162598 15.07331543 -5.04223633 14.04858398 C-3.88797787 8.96253862 -2.61113959 4.52546481 0 0 Z " fill="#141B26" transform="translate(17,162)"/>
<path d="M0 0 C3.38045627 1.29896468 6.57139854 2.75653135 9.765625 4.4609375 C10.65636719 4.93273437 11.54710938 5.40453125 12.46484375 5.890625 C14.30620338 6.87199479 16.14735291 7.8537589 17.98828125 8.8359375 C23.5696134 11.79123279 29.18860364 14.52596478 35 17 C35 17.33 35 17.66 35 18 C28.0891151 17.17069381 22.92368439 15.57379306 17 12 C15.68530918 11.27574531 14.3673262 10.55744842 13.046875 9.84375 C12.345625 9.46089844 11.644375 9.07804687 10.921875 8.68359375 C9.46189641 7.88795793 7.99826741 7.09898772 6.53125 6.31640625 C5.83515625 5.93355469 5.1390625 5.55070312 4.421875 5.15625 C3.78862305 4.81400391 3.15537109 4.47175781 2.50292969 4.11914062 C1 3 1 3 0 0 Z " fill="#151A23" transform="translate(112,411)"/>
<path d="M0 0 C0.66 0.33 1.32 0.66 2 1 C0.59298092 3.81403817 -1.00683351 3.97425906 -3.91796875 5.09375 C-5.42907227 5.67962891 -5.42907227 5.67962891 -6.97070312 6.27734375 C-8.56301758 6.88255859 -8.56301758 6.88255859 -10.1875 7.5 C-11.75081055 8.10521484 -11.75081055 8.10521484 -13.34570312 8.72265625 C-27.80935129 14.2947928 -27.80935129 14.2947928 -34 14 C-31.79424769 11.79424769 -30.53092565 11.37020798 -27.59765625 10.44921875 C-26.26891479 10.02286133 -26.26891479 10.02286133 -24.91333008 9.58789062 C-23.97255615 9.29076172 -23.03178223 8.99363281 -22.0625 8.6875 C-15.07477166 6.43664235 -8.41052129 4.09149412 -1.86328125 0.75 C-1.24839844 0.5025 -0.63351562 0.255 0 0 Z " fill="#151A24" transform="translate(338,423)"/>
<path d="M0 0 C0.33 1.32 0.66 2.64 1 4 C1.66 4 2.32 4 3 4 C4.22861478 13.52176455 4.22861478 22.47823545 3 32 C2.34 32 1.68 32 1 32 C0.67 21.44 0.34 10.88 0 0 Z " fill="#181E2B" transform="translate(363,201)"/>
<path d="M0 0 C0.99 0.33 1.98 0.66 3 1 C0.69359978 4.36075461 -1.40530204 7.41333849 -4.3125 10.28125 C-7.43149925 13.43651668 -10.10640799 16.80433532 -12.8125 20.3125 C-13.31458984 20.95767578 -13.81667969 21.60285156 -14.33398438 22.26757812 C-15.55905681 23.84267125 -16.7799632 25.42100316 -18 27 C-18.33 26.01 -18.66 25.02 -19 24 C-17.84765625 22.08984375 -17.84765625 22.08984375 -16.0625 19.9375 C-15.09570312 18.75220703 -15.09570312 18.75220703 -14.109375 17.54296875 C-13.41328125 16.70378906 -12.7171875 15.86460938 -12 15 C-10.60162454 13.25203067 -9.20575942 11.50204991 -7.8125 9.75 C-6.54199801 8.16640078 -5.27116889 6.58306394 -4 5 C-2.66638285 3.33356042 -1.33297286 1.66695498 0 0 Z " fill="#141A25" transform="translate(63,80)"/>
<path d="M0 0 C-3.63306058 2.42204038 -5.31819023 2.23302891 -9.63671875 2.1953125 C-11.58481445 2.18564453 -11.58481445 2.18564453 -13.57226562 2.17578125 C-14.94401307 2.1590706 -16.31575786 2.14214071 -17.6875 2.125 C-19.07095718 2.11496674 -20.45442127 2.10584149 -21.83789062 2.09765625 C-25.22543452 2.07404967 -28.61263072 2.04112037 -32 2 C-32 1.34 -32 0.68 -32 0 C-9.2027972 -1.56643357 -9.2027972 -1.56643357 0 0 Z " fill="#101520" transform="translate(244,5)"/>
<path d="M0 0 C0.66 0 1.32 0 2 0 C1.37386925 3.01551294 0.38788684 5.32390836 -1.1796875 7.96875 C-1.61410156 8.70480469 -2.04851562 9.44085938 -2.49609375 10.19921875 C-2.95113281 10.95847656 -3.40617187 11.71773438 -3.875 12.5 C-4.32230469 13.25925781 -4.76960938 14.01851563 -5.23046875 14.80078125 C-7.32994408 18.33706565 -9.41895094 21.78650846 -12 25 C-12.99 24.67 -13.98 24.34 -15 24 C-14.5875 23.44054687 -14.175 22.88109375 -13.75 22.3046875 C-8.60398723 15.16000013 -4.26461113 7.68737695 0 0 Z " fill="#151B24" transform="translate(440,326)"/>
<path d="M0 0 C4.35772557 3.55752375 5.83552673 7.82265188 7.75 12.9375 C8.22373047 14.13536133 8.22373047 14.13536133 8.70703125 15.35742188 C10.23073369 19.33817694 11.45559809 22.66305662 11 27 C8.27603291 25.63801645 8.1558022 24.30642648 7.08984375 21.484375 C6.73986328 20.56269531 6.38988281 19.64101562 6.02929688 18.69140625 C5.48885742 17.23541016 5.48885742 17.23541016 4.9375 15.75 C4.57333984 14.79480469 4.20917969 13.83960938 3.83398438 12.85546875 C2.22392019 8.57585266 0.80344689 4.51302121 0 0 Z " fill="#121925" transform="translate(200,204)"/>
<path d="M0 0 C3.96519638 3.5576861 5.6046032 8.15603995 7.75 12.9375 C8.17410156 13.84435547 8.59820312 14.75121094 9.03515625 15.68554688 C9.43089844 16.56146484 9.82664063 17.43738281 10.234375 18.33984375 C10.59756836 19.13769287 10.96076172 19.93554199 11.33496094 20.75756836 C12.08340397 23.28122815 11.87414932 24.55273155 11 27 C9.34544965 23.44148536 7.70291536 19.87755003 6.0625 16.3125 C5.35963867 14.80139648 5.35963867 14.80139648 4.64257812 13.25976562 C3.9706543 11.79506836 3.9706543 11.79506836 3.28515625 10.30078125 C2.87144775 9.40528564 2.45773926 8.50979004 2.03149414 7.5871582 C1.02166025 5.0543275 0.44217565 2.68478898 0 0 Z " fill="#141A26" transform="translate(235,124)"/>
<path d="M0 0 C0.33 0.99 0.66 1.98 1 3 C-0.3359375 5.12890625 -0.3359375 5.12890625 -2.375 7.5625 C-3.10460937 8.43777344 -3.83421875 9.31304687 -4.5859375 10.21484375 C-8.32912042 14.53343505 -12.13257123 18.79238074 -16 23 C-16.66 22.67 -17.32 22.34 -18 22 C-17.63237549 21.58226318 -17.26475098 21.16452637 -16.88598633 20.73413086 C-15.19148641 18.80482357 -13.50198298 16.87120167 -11.8125 14.9375 C-11.23435547 14.28072266 -10.65621094 13.62394531 -10.06054688 12.94726562 C-6.43462874 8.78872675 -3.13532763 4.54061573 0 0 Z " fill="#161C25" transform="translate(423,353)"/>
<path d="M0 0 C5.24826605 4.25535085 6.32318893 8.60715778 8 15 C8.63763539 16.67798788 9.28627281 18.35293725 10 20 C9.01 20 8.02 20 7 20 C6.60167969 19.01257813 6.20335937 18.02515625 5.79296875 17.0078125 C5.25829608 15.71334182 4.72311313 14.41908183 4.1875 13.125 C3.92646484 12.47402344 3.66542969 11.82304687 3.39648438 11.15234375 C1.94194382 7.66862933 1.21850411 6.14566941 -2 4 C-1.34 4 -0.68 4 0 4 C0 2.68 0 1.36 0 0 Z " fill="#182033" transform="translate(266,273)"/>
<path d="M0 0 C0.66 0 1.32 0 2 0 C1.24784303 5.00082741 -0.57134451 9.55453323 -2.375 14.25 C-2.83132812 15.49136719 -2.83132812 15.49136719 -3.296875 16.7578125 C-3.59851563 17.54414063 -3.90015625 18.33046875 -4.2109375 19.140625 C-4.48212402 19.85766602 -4.75331055 20.57470703 -5.03271484 21.31347656 C-6 23 -6 23 -9 24 C-6.80148049 15.63019764 -3.50929804 7.88172441 0 0 Z " fill="#10141E" transform="translate(132,214)"/>
<path d="M0 0 C0.66 0.33 1.32 0.66 2 1 C1.52087184 9.24430867 0.02214499 17.00044527 -2 25 C-2.66 25 -3.32 25 -4 25 C-3.24595285 16.55467195 -1.62171958 8.31258777 0 0 Z " fill="#141B25" transform="translate(462,259)"/>
<path d="M0 0 C4.08335193 3.41758803 5.50963629 7.06714544 7.25 11.9375 C7.518125 12.64068359 7.78625 13.34386719 8.0625 14.06835938 C9.44496158 17.83133515 10.35057245 20.928579 10 25 C6.61219634 21.17438786 5.10257521 16.64252024 3.3125 11.9375 C2.99216797 11.12216797 2.67183594 10.30683594 2.34179688 9.46679688 C0 3.39010861 0 3.39010861 0 0 Z " fill="#121824" transform="translate(190,178)"/>
<path d="M0 0 C0.66 0 1.32 0 2 0 C1.25966166 4.6431096 -0.29425098 8.86800262 -1.9375 13.25 C-2.20240234 13.9821875 -2.46730469 14.714375 -2.74023438 15.46875 C-4.75930208 20.87965104 -4.75930208 20.87965104 -7 22 C-6.69398128 15.38999569 -5.16470095 10.75400172 -2 5 C-1.30959426 3.34302621 -0.63028587 1.68076231 0 0 Z " fill="#161F2B" transform="translate(138,282)"/>
<path d="M0 0 C0.99 0.33 1.98 0.66 3 1 C-2.64170115 6.46388249 -8.70709637 10.95515135 -16 14 C-16.66 13.67 -17.32 13.34 -18 13 C-17.3709375 12.56429688 -16.741875 12.12859375 -16.09375 11.6796875 C-15.2378125 11.08414062 -14.381875 10.48859375 -13.5 9.875 C-12.59121094 9.24335938 -11.68242187 8.61171875 -10.74609375 7.9609375 C-7.63538206 5.73963271 -4.64901245 3.38917094 -1.69140625 0.96875 C-1.13324219 0.6490625 -0.57507813 0.329375 0 0 Z " fill="#151B27" transform="translate(367,288)"/>
<path d="M0 0 C0.66 0 1.32 0 2 0 C2.495 0.99 2.495 0.99 3 2 C3.99 2.33 4.98 2.66 6 3 C4 5 4 5 0.46826172 5.13525391 C-1.04492808 5.09289483 -2.5578274 5.03922419 -4.0703125 4.9765625 C-4.86654022 4.95153656 -5.66276794 4.92651062 -6.48312378 4.90072632 C-9.03084304 4.81843302 -11.57779774 4.72188097 -14.125 4.625 C-15.850229 4.56676988 -17.57548954 4.5094664 -19.30078125 4.453125 C-23.53429537 4.3128406 -27.76717807 4.15976487 -32 4 C-32 3.67 -32 3.34 -32 3 C-16.655 2.505 -16.655 2.505 -1 2 C-0.67 1.34 -0.34 0.68 0 0 Z " fill="#212838" transform="translate(212,233)"/>
<path d="M0 0 C2.53505286 2.25723885 3.76169899 4.31955982 5.04296875 7.44921875 C5.39423828 8.29677734 5.74550781 9.14433594 6.10742188 10.01757812 C6.46384766 10.89865234 6.82027344 11.77972656 7.1875 12.6875 C7.55552734 13.58017578 7.92355469 14.47285156 8.30273438 15.39257812 C9.20854275 17.59239846 10.10733011 19.79482294 11 22 C8 21 8 21 6.92504883 19.3894043 C6.60560303 18.70789307 6.28615723 18.02638184 5.95703125 17.32421875 C5.60576172 16.57849609 5.25449219 15.83277344 4.89257812 15.06445312 C4.53615234 14.28005859 4.17972656 13.49566406 3.8125 12.6875 C3.26045898 11.52831055 3.26045898 11.52831055 2.69726562 10.34570312 C0.91416011 6.49829734 0 4.35544965 0 0 Z " fill="#151A25" transform="translate(248,234)"/>
<path d="M0 0 C0.99 0.33 1.98 0.66 3 1 C3.12375 2.051875 3.2475 3.10375 3.375 4.1875 C3.83476853 7.86890305 3.83476853 7.86890305 5.0625 10.625 C6.09752133 13.24705404 6.15959779 15.20703859 6 18 C3.47650757 14.87567603 1.72743854 11.61939504 0 8 C-0.99 8.495 -0.99 8.495 -2 9 C-1.125 2.25 -1.125 2.25 0 0 Z " fill="#171D2D" transform="translate(184,159)"/>
<path d="M0 0 C0 0.33 0 0.66 0 1 C-12.375 2.98 -12.375 2.98 -25 5 C-24.67 4.01 -24.34 3.02 -24 2 C-15.96235969 -0.07422976 -8.27015524 -0.2144997 0 0 Z " fill="#141A25" transform="translate(211,7)"/>
<path d="M0 0 C0.495 1.485 0.495 1.485 1 3 C0.34 4.32 -0.32 5.64 -1 7 C-12.22 7 -23.44 7 -35 7 C-35 6.67 -35 6.34 -35 6 C-24.11 6 -13.22 6 -2 6 C-1.67 4.35 -1.34 2.7 -1 1 C-0.67 0.67 -0.34 0.34 0 0 Z " fill="#070D16" transform="translate(130,305)"/>
<path d="M0 0 C8.58 0 17.16 0 26 0 C26 0.33 26 0.66 26 1 C23.36 1 20.72 1 18 1 C18 1.66 18 2.32 18 3 C15.37405216 2.8863485 12.74988453 2.75960946 10.125 2.625 C9.37863281 2.5940625 8.63226563 2.563125 7.86328125 2.53125 C2.2265625 2.2265625 2.2265625 2.2265625 0 0 Z " fill="#141B28" transform="translate(210,444)"/>
<path d="M0 0 C2.62714298 2.34374855 4.03210328 4.71825693 5.5625 7.875 C6.18318359 9.13957031 6.18318359 9.13957031 6.81640625 10.4296875 C7.20699219 11.27789062 7.59757812 12.12609375 8 13 C8.40089844 13.84820312 8.80179687 14.69640625 9.21484375 15.5703125 C10.07303867 18.22602015 9.95485172 19.42190036 9 22 C8.76925781 21.46632812 8.53851563 20.93265625 8.30078125 20.3828125 C6.0339085 15.20394907 3.58893974 10.16575914 0.953125 5.1640625 C0 3 0 3 0 0 Z " fill="#121821" transform="translate(384,168)"/>
<path d="M0 0 C8.02114786 0.84433135 16.00861581 1.91553021 24 3 C24 3.33 24 3.66 24 4 C19.71 4 15.42 4 11 4 C10.67 4.66 10.34 5.32 10 6 C9.67 5.34 9.34 4.68 9 4 C6.88153715 3.31270746 6.88153715 3.31270746 4.4375 2.875 C3.61121094 2.70742188 2.78492188 2.53984375 1.93359375 2.3671875 C1.29550781 2.24601562 0.65742188 2.12484375 0 2 C0 1.34 0 0.68 0 0 Z " fill="#131720" transform="translate(185,440)"/>
<path d="M0 0 C0.33 0 0.66 0 1 0 C0.5365039 6.79794279 -1.84179861 12.98481295 -5 19 C-5.99 19.66 -6.98 20.32 -8 21 C-5.72564796 13.81783567 -2.96415819 6.9241798 0 0 Z " fill="#121722" transform="translate(122,239)"/>
<path d="M0 0 C-2.62042843 1.67394001 -5.24705905 3.3378835 -7.875 5 C-8.62136719 5.47695313 -9.36773437 5.95390625 -10.13671875 6.4453125 C-10.85214844 6.89648438 -11.56757812 7.34765625 -12.3046875 7.8125 C-13.2944458 8.44091797 -13.2944458 8.44091797 -14.30419922 9.08203125 C-16 10 -16 10 -18 10 C-16.66492314 5.99476942 -14.12662223 4.84110581 -10.6875 2.75 C-10.10548828 2.37359375 -9.52347656 1.9971875 -8.92382812 1.609375 C-5.47516289 -0.51528399 -3.83630258 -1.27165652 0 0 Z " fill="#18202C" transform="translate(122,37)"/>
<path d="M0 0 C-2.58090767 1.31746333 -5.16450458 2.62909617 -7.75 3.9375 C-8.47960937 4.31068359 -9.20921875 4.68386719 -9.9609375 5.06835938 C-10.66992188 5.42607422 -11.37890625 5.78378906 -12.109375 6.15234375 C-13.08342285 6.6472229 -13.08342285 6.6472229 -14.07714844 7.15209961 C-16.03293079 8.01452116 -17.91540694 8.54374179 -20 9 C-20 8.34 -20 7.68 -20 7 C-17.42362412 5.63092584 -14.84031896 4.27971545 -12.25 2.9375 C-11.52039063 2.54755859 -10.79078125 2.15761719 -10.0390625 1.75585938 C-9.33007812 1.39169922 -8.62109375 1.02753906 -7.890625 0.65234375 C-7.24125977 0.31195068 -6.59189453 -0.02844238 -5.92285156 -0.37915039 C-3.58008982 -1.13558044 -2.29543427 -0.78821819 0 0 Z " fill="#161D27" transform="translate(145,25)"/>
<path d="M0 0 C-1 2 -1 2 -2.71484375 2.6328125 C-8.54821499 3.92456079 -14.03517796 4.2241478 -20 4 C-14.34997552 0.23331701 -6.6999555 -0.36215976 0 0 Z " fill="#141922" transform="translate(296,439)"/>
<path d="M0 0 C0.33 0 0.66 0 1 0 C1.340192 4.93278407 0.39691305 7.94803545 -1.875 12.3125 C-2.40867187 13.36050781 -2.94234375 14.40851563 -3.4921875 15.48828125 C-5 18 -5 18 -7 19 C-4.94235079 12.54646385 -2.57616518 6.2638737 0 0 Z " fill="#141B24" transform="translate(453,297)"/>
<path d="M0 0 C6.71700347 -0.31985731 11.75726932 0.5206176 18 3 C18 3.66 18 4.32 18 5 C15.37303769 4.55120234 12.74883107 4.09145886 10.125 3.625 C9.37863281 3.49867187 8.63226563 3.37234375 7.86328125 3.2421875 C2.2265625 2.2265625 2.2265625 2.2265625 0 0 Z " fill="#151C27" transform="translate(281,10)"/>
<path d="M0 0 C0.99 0.66 1.98 1.32 3 2 C0.92426919 3.20284401 -1.15883095 4.38705701 -3.25 5.5625 C-4.12978516 6.07586914 -4.12978516 6.07586914 -5.02734375 6.59960938 C-9.45794859 9.06382218 -9.45794859 9.06382218 -12.421875 8.71484375 C-12.94265625 8.47894531 -13.4634375 8.24304688 -14 8 C-13.40832031 7.67386719 -12.81664062 7.34773438 -12.20703125 7.01171875 C-8.09670124 4.7386325 -4.00559486 2.45504201 0 0 Z " fill="#1B212B" transform="translate(355,414)"/>
<path d="M0 0 C3.96 0 7.92 0 12 0 C12 0.66 12 1.32 12 2 C9.23434618 2.92188461 7.61716298 3.11785222 4.76953125 3.09765625 C3.96708984 3.09443359 3.16464844 3.09121094 2.33789062 3.08789062 C1.50451172 3.07951172 0.67113281 3.07113281 -0.1875 3.0625 C-1.03248047 3.05798828 -1.87746094 3.05347656 -2.74804688 3.04882812 C-4.83206155 3.03705403 -6.91603977 3.0191189 -9 3 C-9 2.67 -9 2.34 -9 2 C-6.03 2 -3.06 2 0 2 C0 1.34 0 0.68 0 0 Z " fill="#101722" transform="translate(286,150)"/>
<path d="M0 0 C0.99 0.33 1.98 0.66 3 1 C-1.29 4.63 -5.58 8.26 -10 12 C-10.33 11.01 -10.66 10.02 -11 9 C-9.23977508 7.46690087 -7.46646537 5.94881299 -5.6875 4.4375 C-4.70136719 3.59058594 -3.71523437 2.74367187 -2.69921875 1.87109375 C-1.80847656 1.25363281 -0.91773437 0.63617188 0 0 Z " fill="#131925" transform="translate(87,58)"/>
<path d="M0 0 C3.40045734 1.2066139 6.56683354 2.75199559 9.75 4.4375 C10.52859375 4.84871094 11.3071875 5.25992187 12.109375 5.68359375 C14 7 14 7 15 10 C11.59954266 8.7933861 8.43316646 7.24800441 5.25 5.5625 C4.08210938 4.94568359 4.08210938 4.94568359 2.890625 4.31640625 C1 3 1 3 0 0 Z " fill="#1A202B" transform="translate(112,411)"/>
<path d="M0 0 C0.66 0 1.32 0 2 0 C1.42176904 4.06225548 0.10882263 6.84762346 -2.0625 10.3125 C-2.61035156 11.19550781 -3.15820312 12.07851563 -3.72265625 12.98828125 C-4.14417969 13.65214844 -4.56570313 14.31601562 -5 15 C-5.68359375 13.359375 -5.68359375 13.359375 -6 11 C-4.78515625 8.203125 -4.78515625 8.203125 -3.0625 5.25 C-2.49660156 4.26515625 -1.93070312 3.2803125 -1.34765625 2.265625 C-0.90292969 1.51796875 -0.45820313 0.7703125 0 0 Z " fill="#161D26" transform="translate(389,258)"/>
<path d="M0 0 C0.66 0 1.32 0 2 0 C0.97137215 5.44567686 -0.24614784 10.11817117 -3 15 C-3.33 15 -3.66 15 -4 15 C-3.43179252 9.54520815 -2.05362055 5.08940744 0 0 Z " fill="#151A25" transform="translate(177,177)"/>
<path d="M0 0 C4.78775956 3.53613714 9.46451416 7.14483704 14 11 C13.01 11.33 12.02 11.66 11 12 C8.8125 10.6875 8.8125 10.6875 7 9 C7 8.34 7 7.68 7 7 C6.401875 6.731875 5.80375 6.46375 5.1875 6.1875 C3.00152146 5.00082594 1.58667406 3.90400887 0 2 C0 1.34 0 0.68 0 0 Z " fill="#121720" transform="translate(79,386)"/>
<path d="M0 0 C0 0.66 0 1.32 0 2 C-6.33881314 1.37802877 -12.67094142 0.71457113 -19 0 C-19 -0.33 -19 -0.66 -19 -1 C-16.95999027 -1.22397733 -14.91783811 -1.42848537 -12.875 -1.625 C-11.73804688 -1.74101562 -10.60109375 -1.85703125 -9.4296875 -1.9765625 C-5.83488201 -2.00112837 -3.319329 -1.32167811 0 0 Z " fill="#111A22" transform="translate(320,153)"/>
<path d="M0 0 C5.08938811 1.59043379 8.87456643 4.7446951 13 8 C11.296875 8.70703125 11.296875 8.70703125 9 9 C6.640625 7.63671875 6.640625 7.63671875 4.25 5.6875 C3.45078125 5.05199219 2.6515625 4.41648437 1.828125 3.76171875 C1.22484375 3.18035156 0.6215625 2.59898437 0 2 C0 1.34 0 0.68 0 0 Z " fill="#161C26" transform="translate(94,399)"/>
<path d="M0 0 C0.66 0.33 1.32 0.66 2 1 C0.71034824 2.37562854 -0.62689293 3.70766393 -2 5 C-2.66 5 -3.32 5 -4 5 C-4.2475 5.5775 -4.495 6.155 -4.75 6.75 C-6.16683317 9.3002997 -7.87627537 11.01785701 -10 13 C-10.66 12.67 -11.32 12.34 -12 12 C-11.566875 11.60167969 -11.13375 11.20335938 -10.6875 10.79296875 C-10.130625 10.26316406 -9.57375 9.73335937 -9 9.1875 C-8.443125 8.66542969 -7.88625 8.14335938 -7.3125 7.60546875 C-5.683535 5.95851033 -5.683535 5.95851033 -6 3 C-5.38125 2.87625 -4.7625 2.7525 -4.125 2.625 C-1.80879168 2.12802644 -1.80879168 2.12802644 0 0 Z " fill="#293751" transform="translate(80,66)"/>
<path d="M0 0 C5.2584002 0.67415387 10.02638346 2.24265549 15 4 C15 4.33 15 4.66 15 5 C9.1977825 5.36263859 5.36000789 4.25684543 0 2 C0 1.34 0 0.68 0 0 Z " fill="#121821" transform="translate(153,431)"/>
<path d="M0 0 C0.33 0 0.66 0 1 0 C0.45438289 4.54680927 -0.18822569 8.7725266 -2 13 C-2.99 13.33 -3.98 13.66 -5 14 C-3.45730076 9.27934033 -1.92205381 4.58335908 0 0 Z " fill="#10141E" transform="translate(155,158)"/>
<path d="M0 0 C6.37675351 6.20440882 6.37675351 6.20440882 8 9 C7.5703125 11.12109375 7.5703125 11.12109375 7 13 C5.82479354 11.40207898 4.66008753 9.79643092 3.5 8.1875 C2.8503125 7.29417969 2.200625 6.40085938 1.53125 5.48046875 C0 3 0 3 0 0 Z " fill="#151C27" transform="translate(375,155)"/>
<path d="M0 0 C2.79163712 2.40768703 3.89717557 4.76146616 5.1875 8.1875 C5.53167969 9.08855469 5.87585938 9.98960937 6.23046875 10.91796875 C6.48441406 11.60503906 6.73835938 12.29210937 7 13 C4 12 4 12 2.83203125 10.29296875 C2.49558594 9.59816406 2.15914063 8.90335937 1.8125 8.1875 C1.46832031 7.50042969 1.12414062 6.81335938 0.76953125 6.10546875 C0 4 0 4 0 0 Z " fill="#0F151E" transform="translate(259,258)"/>
<path d="M0 0 C0.66 0 1.32 0 2 0 C1.45660208 4.56454251 0.20536179 7.9728176 -2 12 C-2.33 12 -2.66 12 -3 12 C-2.49202991 7.6822542 -1.80317221 3.96697886 0 0 Z " fill="#151B29" transform="translate(167,203)"/>
<path d="M0 0 C0.99 0.33 1.98 0.66 3 1 C-1.81776765 8.66742597 -1.81776765 8.66742597 -7 10 C-5.33248852 6.05860922 -2.77289351 3.2107188 0 0 Z " fill="#1A202C" transform="translate(63,80)"/>
<path d="M0 0 C0.99 0.33 1.98 0.66 3 1 C1.87895467 2.31587941 0.75303035 3.62760353 -0.375 4.9375 C-1.00148438 5.66839844 -1.62796875 6.39929688 -2.2734375 7.15234375 C-4 9 -4 9 -6 10 C-4.6302836 6.00499382 -2.74277578 3.19990508 0 0 Z " fill="#121822" transform="translate(379,275)"/>
<path d="M0 0 C1.32 0.33 2.64 0.66 4 1 C0.7 3.31 -2.6 5.62 -6 8 C-6 7.01 -6 6.02 -6 5 C-3.25 2.25 -3.25 2.25 0 0 Z " fill="#131823" transform="translate(99,48)"/>
<path d="M0 0 C-1.28264727 2.56529454 -2.22772349 2.66499863 -4.875 3.625 C-5.57367188 3.88539062 -6.27234375 4.14578125 -6.9921875 4.4140625 C-9 5 -9 5 -12 5 C-12 4.34 -12 3.68 -12 3 C-4.71428571 -0.42857143 -4.71428571 -0.42857143 0 0 Z " fill="#141B25" transform="translate(158,19)"/>
<path d="M0 0 C2.47859908 2.2008849 3.61210366 4.06372969 4.6875 7.1875 C4.93886719 7.90292969 5.19023437 8.61835938 5.44921875 9.35546875 C5.63097656 9.89816406 5.81273437 10.44085938 6 11 C5.01 11 4.02 11 3 11 C0 4.5 0 4.5 0 0 Z " fill="#131622" transform="translate(270,282)"/>
<path d="M0 0 C0.66 0.33 1.32 0.66 2 1 C1.67 4.63 1.34 8.26 1 12 C0.34 11.67 -0.32 11.34 -1 11 C-0.67 7.37 -0.34 3.74 0 0 Z " fill="#19202E" transform="translate(462,259)"/>
<path d="M0 0 C0.66 0 1.32 0 2 0 C1.54965877 1.62723299 1.08944646 3.25173664 0.625 4.875 C0.36976562 5.77992188 0.11453125 6.68484375 -0.1484375 7.6171875 C-1 10 -1 10 -3 12 C-2.49202991 7.6822542 -1.80317221 3.96697886 0 0 Z " fill="#151C26" transform="translate(24,140)"/>
<path d="M0 0 C2.47859908 2.2008849 3.61210366 4.06372969 4.6875 7.1875 C4.93886719 7.90292969 5.19023437 8.61835938 5.44921875 9.35546875 C5.63097656 9.89816406 5.81273437 10.44085938 6 11 C3 10 3 10 1.3125 7.1875 C0 4 0 4 0 0 Z " fill="#121824" transform="translate(198,126)"/>
<path d="M0 0 C1.98 0.99 1.98 0.99 4 2 C4 2.66 4 3.32 4 4 C4.66 4.33 5.32 4.66 6 5 C6.625 8.0625 6.625 8.0625 7 11 C4.04250209 7.53258866 1.92151848 4.13126473 0 0 Z " fill="#10151E" transform="translate(427,105)"/>
<path d="M0 0 C3.28788824 3.11016455 5.83735988 6.01618925 8 10 C4.20401451 8.50871999 2.28279601 6.34266559 0 3 C0 2.01 0 1.02 0 0 Z " fill="#121821" transform="translate(50,354)"/>
<path d="M0 0 C0.66 0 1.32 0 2 0 C0.7508258 3.45925163 -0.67527795 6.14693203 -3 9 C-3.99 8.67 -4.98 8.34 -6 8 C-5.04956626 6.66102417 -4.08940853 5.32894573 -3.125 4 C-2.59132813 3.2575 -2.05765625 2.515 -1.5078125 1.75 C-1.01023437 1.1725 -0.51265625 0.595 0 0 Z " fill="#16252D" transform="translate(431,342)"/>
<path d="M0 0 C2.78781976 4.18172964 3.20628545 7.40865509 2.5625 12.375 C2.376875 13.24125 2.19125 14.1075 2 15 C1.67 15 1.34 15 1 15 C0.15318867 9.91913204 -0.09038099 5.15171623 0 0 Z " fill="#1B2231" transform="translate(394,191)"/>
<path d="M0 0 C2.47859908 2.2008849 3.61210366 4.06372969 4.6875 7.1875 C4.93886719 7.90292969 5.19023437 8.61835938 5.44921875 9.35546875 C5.63097656 9.89816406 5.81273437 10.44085938 6 11 C3 10 3 10 1.3125 7.1875 C0 4 0 4 0 0 Z " fill="#111620" transform="translate(209,150)"/>
<path d="M0 0 C0.33 0 0.66 0 1 0 C0.25 7.625 0.25 7.625 -2 11 C-2.66 11 -3.32 11 -4 11 C-3.52269162 9.5410574 -3.04308958 8.08286504 -2.5625 6.625 C-2.29566406 5.81289062 -2.02882812 5.00078125 -1.75390625 4.1640625 C-1 2 -1 2 0 0 Z " fill="#101620" transform="translate(168,126)"/>
<path d="M0 0 C0.33 0.66 0.66 1.32 1 2 C-1.65654657 5.73884332 -3.58110387 7.64978174 -8 9 C-7.04270084 7.87411986 -6.08412105 6.7493285 -5.125 5.625 C-4.59132813 4.99851562 -4.05765625 4.37203125 -3.5078125 3.7265625 C-2.38567993 2.44163349 -1.20628025 1.20628025 0 0 Z " fill="#131720" transform="translate(403,377)"/>
<path d="M0 0 C0.33 0 0.66 0 1 0 C0.91291331 1.45945288 0.80473093 2.91765868 0.6875 4.375 C0.62949219 5.18710937 0.57148438 5.99921875 0.51171875 6.8359375 C0 9 0 9 -3 11 C-2.69078116 9.54096742 -2.37751201 8.08279278 -2.0625 6.625 C-1.88847656 5.81289063 -1.71445312 5.00078125 -1.53515625 4.1640625 C-1 2 -1 2 0 0 Z " fill="#10161E" transform="translate(457,285)"/>
<path d="M0 0 C0.66 0 1.32 0 2 0 C1.39009109 3.55780196 0.4216319 6.6828589 -1 10 C-1.66 9.67 -2.32 9.34 -3 9 C-2.01 6.03 -1.02 3.06 0 0 Z " fill="#161F29" transform="translate(132,214)"/>
<path d="M0 0 C3.71888239 0.50712033 6.73454239 1.11608215 10 3 C10 3.66 10 4.32 10 5 C8.51800098 4.55090939 7.03944764 4.09043436 5.5625 3.625 C4.73878906 3.36976563 3.91507812 3.11453125 3.06640625 2.8515625 C1 2 1 2 0 0 Z " fill="#141922" transform="translate(334,129)"/>
<path d="M0 0 C0.99 0.33 1.98 0.66 3 1 C0.69 3.31 -1.62 5.62 -4 8 C-4.33 7.01 -4.66 6.02 -5 5 C-3.35 3.35 -1.7 1.7 0 0 Z " fill="#181E29" transform="translate(72,71)"/>
<path d="M0 0 C0.66 0 1.32 0 2 0 C1.71872579 1.48117801 1.42466268 2.95993249 1.125 4.4375 C0.96257812 5.26121094 0.80015625 6.08492187 0.6328125 6.93359375 C0.31957031 7.95646484 0.31957031 7.95646484 0 9 C-0.99 9.495 -0.99 9.495 -2 10 C-1.54177532 6.53058454 -1.10868317 3.32604951 0 0 Z " fill="#101620" transform="translate(162,216)"/>
<path d="M0 0 C0.66 0 1.32 0 2 0 C3.28317892 3.84953676 3.06643637 6.94738135 3 11 C0.43383368 7.15075052 0.44902324 4.5650696 0 0 Z " fill="#171B26" transform="translate(457,168)"/>
<path d="M0 0 C0.33 0 0.66 0 1 0 C0.54177532 3.46941546 0.10868317 6.67395049 -1 10 C-1.99 9.67 -2.98 9.34 -4 9 C-2.68 6.03 -1.36 3.06 0 0 Z " fill="#141924" transform="translate(160,146)"/>
<path d="M0 0 C3.44216672 2.6598561 3.99504674 5.90288286 5 10 C2 9 2 9 0.8125 6.6875 C0 4 0 4 0 0 Z " fill="#141922" transform="translate(204,139)"/>
<path d="M0 0 C6.27 0 12.54 0 19 0 C19 0.33 19 0.66 19 1 C12.73 1 6.46 1 0 1 C0 0.67 0 0.34 0 0 Z " fill="#2E2E3A" transform="translate(179,238)"/>
<path d="M0 0 C0.33 0 0.66 0 1 0 C0.54177532 3.46941546 0.10868317 6.67395049 -1 10 C-1.66 10 -2.32 10 -3 10 C-2.49287967 6.28111761 -1.88391785 3.26545761 0 0 Z " fill="#0F151F" transform="translate(149,173)"/>
<path d="M0 0 C-3.00617269 3.00617269 -5.82381598 2.59585316 -10 3 C-10 2.34 -10 1.68 -10 1 C-6.61981469 -0.04005702 -3.5219721 -0.08004482 0 0 Z " fill="#131B27" transform="translate(181,12)"/>
<path d="M0 0 C1 3 1 3 -0.4375 6.1875 C-1.2109375 7.5796875 -1.2109375 7.5796875 -2 9 C-2.6875 7.3125 -2.6875 7.3125 -3 5 C-1.5625 2.25 -1.5625 2.25 0 0 Z " fill="#0F151E" transform="translate(172,193)"/>
<path d="M0 0 C0 0.33 0 0.66 0 1 C-5.50016964 2.30267176 -10.47032059 1.71033431 -16 1 C-16 0.67 -16 0.34 -16 0 C-10.47032059 -0.71033431 -5.50016964 -1.30267176 0 0 Z " fill="#1E2735" transform="translate(325,126)"/>
<path d="M0 0 C2.31 1.98 4.62 3.96 7 6 C6.01 6.33 5.02 6.66 4 7 C2 5.1875 2 5.1875 0 3 C0 2.01 0 1.02 0 0 Z " fill="#1D232F" transform="translate(404,75)"/>
<path d="M0 0 C6.625 0.75 6.625 0.75 10 3 C3.47692308 3.36923077 3.47692308 3.36923077 1.0625 1.5 C0.5365625 0.7575 0.5365625 0.7575 0 0 Z " fill="#0E141C" transform="translate(169,436)"/>
<path d="M0 0 C0.33 0 0.66 0 1 0 C0.67 2.64 0.34 5.28 0 8 C-0.99 8.33 -1.98 8.66 -3 9 C-2.01 6.03 -1.02 3.06 0 0 Z " fill="#101D27" transform="translate(109,271)"/>
<path d="M0 0 C3.3 0 6.6 0 10 0 C10 0.33 10 0.66 10 1 C6.7 1 3.4 1 0 1 C0 0.67 0 0.34 0 0 Z " fill="#1E1E3D" transform="translate(168,238)"/>
<path d="M0 0 C2.97 0 5.94 0 9 0 C9 0.33 9 0.66 9 1 C6.03 1 3.06 1 0 1 C0 0.67 0 0.34 0 0 Z " fill="#2B2B52" transform="translate(157,238)"/>
<path d="M0 0 C0.33 0.99 0.66 1.98 1 3 C0.34 3.99 -0.32 4.98 -1 6 C-0.67 4.02 -0.34 2.04 0 0 Z " fill="#18182A" transform="translate(465,182)"/>
<path d="M0 0 C0.99 0.495 0.99 0.495 2 1 C1.67 1.99 1.34 2.98 1 4 C0.67 2.68 0.34 1.36 0 0 Z " fill="#0A0A47" transform="translate(234,278)"/>
<path d="M0 0 C0.66 1.32 1.32 2.64 2 4 C1.34 3.67 0.68 3.34 0 3 C0 2.01 0 1.02 0 0 Z " fill="#111144" transform="translate(465,263)"/>
<path d="M0 0 C0.99 0.33 1.98 0.66 3 1 C2.01 1 1.02 1 0 1 C0 0.67 0 0.34 0 0 Z " fill="#000020" transform="translate(189,444)"/>
<path d="M0 0 C0.66 0.66 1.32 1.32 2 2 C1.01 1.67 0.02 1.34 -1 1 C-0.67 0.67 -0.34 0.34 0 0 Z " fill="#000040" transform="translate(334,428)"/>
<path d="M0 0 C0.33 0.99 0.66 1.98 1 3 C0.34 2.67 -0.32 2.34 -1 2 C-0.67 1.34 -0.34 0.68 0 0 Z " fill="#101030" transform="translate(123,420)"/>
<path d="M0 0 C0.99 0.495 0.99 0.495 2 1 C1.67 1.66 1.34 2.32 1 3 C0.67 2.01 0.34 1.02 0 0 Z " fill="#0C0C2C" transform="translate(84,394)"/>
<path d="M0 0 C0 3 0 3 0 3 Z " fill="#32325E" transform="translate(30,328)"/>
<path d="M0 0 C0.33 0.66 0.66 1.32 1 2 C0.01 1.67 -0.98 1.34 -2 1 C-1.34 0.67 -0.68 0.34 0 0 Z " fill="#000020" transform="translate(323,281)"/>
<path d="M0 0 C1 4 1 4 1 4 Z " fill="#3F3F5F" transform="translate(464,267)"/>
<path d="M0 0 C4 1 4 1 4 1 Z " fill="#3A3A5A" transform="translate(205,238)"/>
<path d="M0 0 C0.99 0.495 0.99 0.495 2 1 C1.34 1.66 0.68 2.32 0 3 C0 2.01 0 1.02 0 0 Z " fill="#101030" transform="translate(172,183)"/>
<path d="M0 0 C0.99 0.495 0.99 0.495 2 1 C1.67 1.66 1.34 2.32 1 3 C0.67 2.01 0.34 1.02 0 0 Z " fill="#000000" transform="translate(199,135)"/>
<path d="M0 0 C0 3 0 3 0 3 Z " fill="#000000" transform="translate(37,103)"/>
<path d="M0 0 C0.66 0.66 1.32 1.32 2 2 C1.34 2 0.68 2 0 2 C0 1.34 0 0.68 0 0 Z " fill="#000055" transform="translate(192,445)"/>
<path d="M0 0 C0.66 0.66 1.32 1.32 2 2 C1.34 2 0.68 2 0 2 C0 1.34 0 0.68 0 0 Z " fill="#1C1C47" transform="translate(88,397)"/>
<path d="" fill="#383838" transform="translate(0,0)"/>
<path d="M0 0 C0.66 0.66 1.32 1.32 2 2 C1.34 2 0.68 2 0 2 C0 1.34 0 0.68 0 0 Z " fill="#000055" transform="translate(30,332)"/>
<path d="M0 0 C0.99 0.495 0.99 0.495 2 1 C1.01 1.495 1.01 1.495 0 2 C0 1.34 0 0.68 0 0 Z " fill="#0E0E1C" transform="translate(28,327)"/>
<path d="M0 0 C0.66 0 1.32 0 2 0 C1.67 0.66 1.34 1.32 1 2 C0.67 1.34 0.34 0.68 0 0 Z " fill="#1C1C71" transform="translate(126,304)"/>
<path d="M0 0 C0.66 0 1.32 0 2 0 C1.67 0.66 1.34 1.32 1 2 C0.67 1.34 0.34 0.68 0 0 Z " fill="#111122" transform="translate(14,293)"/>
<path d="" fill="#383838" transform="translate(0,0)"/>
<path d="M0 0 C0.66 0 1.32 0 2 0 C1.67 0.66 1.34 1.32 1 2 C0.67 1.34 0.34 0.68 0 0 Z " fill="#383838" transform="translate(106,287)"/>
<path d="M0 0 C3 1 3 1 3 1 Z " fill="#000055" transform="translate(463,276)"/>
<path d="" fill="#383838" transform="translate(0,0)"/>
<path d="M0 0 C3 1 3 1 3 1 Z " fill="#1C1C71" transform="translate(215,259)"/>
<path d="M0 0 C3 1 3 1 3 1 Z " fill="#000055" transform="translate(207,259)"/>
<path d="M0 0 C3 1 3 1 3 1 Z " fill="#1C1C47" transform="translate(193,259)"/>
<path d="" fill="#151540" transform="translate(0,0)"/>
<path d="" fill="#1C1C47" transform="translate(0,0)"/>
<path d="M0 0 C3 1 3 1 3 1 Z " fill="#1C1C47" transform="translate(201,238)"/>
<path d="" fill="#151540" transform="translate(0,0)"/>
<path d="" fill="#00002A" transform="translate(0,0)"/>
<path d="" fill="#00002A" transform="translate(0,0)"/>
<path d="M0 0 C0.66 0.66 1.32 1.32 2 2 C1.34 2 0.68 2 0 2 C0 1.34 0 0.68 0 0 Z " fill="#1C1C47" transform="translate(195,183)"/>
<path d="M0 0 C0.99 0.495 0.99 0.495 2 1 C1.01 1.495 1.01 1.495 0 2 C0 1.34 0 0.68 0 0 Z " fill="#1C1C1C" transform="translate(463,180)"/>
<path d="" fill="#0E0E47" transform="translate(0,0)"/>
<path d="M0 0 C0.99 0.495 0.99 0.495 2 1 C1.01 1.495 1.01 1.495 0 2 C0 1.34 0 0.68 0 0 Z " fill="#00002A" transform="translate(400,64)"/>
<path d="M0 0 C0.33 0.66 0.66 1.32 1 2 C0.34 1.67 -0.32 1.34 -1 1 C-0.67 0.67 -0.34 0.34 0 0 Z " fill="#000055" transform="translate(318,16)"/>
<path d="M0 0 C3 1 3 1 3 1 Z " fill="#1D2965" transform="translate(311,15)"/>
<path d="M0 0 C3 1 3 1 3 1 Z " fill="#000000" transform="translate(282,7)"/>
<path d="M0 0 C2 1 2 1 2 1 Z " fill="#000040" transform="translate(277,445)"/>
<path d="M0 0 C2 1 2 1 2 1 Z " fill="#2A2A2A" transform="translate(182,442)"/>
<path d="M0 0 C2 1 2 1 2 1 Z " fill="#000000" transform="translate(22,314)"/>
<path d="M0 0 C2 1 2 1 2 1 Z " fill="#202060" transform="translate(21,311)"/>
<path d="M0 0 C2 1 2 1 2 1 Z " fill="#000000" transform="translate(119,308)"/>
<path d="" fill="#000000" transform="translate(0,0)"/>
<path d="" fill="#000000" transform="translate(0,0)"/>
<path d="M0 0 C2 1 2 1 2 1 Z " fill="#2A2A2A" transform="translate(302,285)"/>
<path d="" fill="#000000" transform="translate(0,0)"/>
<path d="M0 0 C2 1 2 1 2 1 Z " fill="#000040" transform="translate(132,281)"/>
<path d="" fill="#000000" transform="translate(0,0)"/>
<path d="" fill="#000000" transform="translate(0,0)"/>
<path d="" fill="#000000" transform="translate(0,0)"/>
<path d="" fill="#000040" transform="translate(0,0)"/>
<path d="" fill="#000080" transform="translate(0,0)"/>
<path d="M0 0 C2 1 2 1 2 1 Z " fill="#000040" transform="translate(219,259)"/>
<path d="M0 0 C2 1 2 1 2 1 Z " fill="#000040" transform="translate(172,259)"/>
<path d="M0 0 C2 1 2 1 2 1 Z " fill="#2A2A2A" transform="translate(121,249)"/>
<path d="" fill="#000000" transform="translate(0,0)"/>
<path d="" fill="#2A2A2A" transform="translate(0,0)"/>
<path d="M0 0 C2 1 2 1 2 1 Z " fill="#000000" transform="translate(244,240)"/>
<path d="M0 0 C2 1 2 1 2 1 Z " fill="#2A2A6A" transform="translate(153,238)"/>
<path d="" fill="#000040" transform="translate(0,0)"/>
<path d="" fill="#000000" transform="translate(0,0)"/>
<path d="" fill="#000000" transform="translate(0,0)"/>
<path d="" fill="#2A2A2A" transform="translate(0,0)"/>
<path d="" fill="#2A2A6A" transform="translate(0,0)"/>
<path d="" fill="#000080" transform="translate(0,0)"/>
<path d="" fill="#000040" transform="translate(0,0)"/>
<path d="" fill="#555555" transform="translate(0,0)"/>
<path d="" fill="#2A2A6A" transform="translate(0,0)"/>
<path d="" fill="#2A2A2A" transform="translate(0,0)"/>
<path d="" fill="#202020" transform="translate(0,0)"/>
<path d="" fill="#000000" transform="translate(0,0)"/>
<path d="" fill="#000040" transform="translate(0,0)"/>
<path d="" fill="#2A2A6A" transform="translate(0,0)"/>
<path d="M0 0 C2 1 2 1 2 1 Z " fill="#4A4A4A" transform="translate(380,168)"/>
<path d="" fill="#000000" transform="translate(0,0)"/>
<path d="M0 0 C2 1 2 1 2 1 Z " fill="#2A2A6A" transform="translate(213,167)"/>
<path d="" fill="#000040" transform="translate(0,0)"/>
<path d="" fill="#2A2A2A" transform="translate(0,0)"/>
<path d="" fill="#000000" transform="translate(0,0)"/>
<path d="" fill="#000000" transform="translate(0,0)"/>
<path d="M0 0 C2 1 2 1 2 1 Z " fill="#2A2A6A" transform="translate(322,151)"/>
<path d="" fill="#000000" transform="translate(0,0)"/>
<path d="" fill="#000000" transform="translate(0,0)"/>
<path d="M0 0 C2 1 2 1 2 1 Z " fill="#202020" transform="translate(334,132)"/>
<path d="M0 0 C2 1 2 1 2 1 Z " fill="#000000" transform="translate(324,130)"/>
<path d="" fill="#404040" transform="translate(0,0)"/>
<path d="M0 0 C2 1 2 1 2 1 Z " fill="#000000" transform="translate(29,122)"/>
<path d="" fill="#000040" transform="translate(0,0)"/>
<path d="" fill="#000000" transform="translate(0,0)"/>
<path d="M0 0 C2 1 2 1 2 1 Z " fill="#191973" transform="translate(123,31)"/>
<path d="" fill="#000000" transform="translate(0,0)"/>
<path d="M0 0 C2 1 2 1 2 1 Z " fill="#000000" transform="translate(155,16)"/>
<path d="M0 0 C2 1 2 1 2 1 Z " fill="#2A2A2A" transform="translate(287,8)"/>
<path d="M0 0 C2 1 2 1 2 1 Z " fill="#404040" transform="translate(188,7)"/>
<path d="M0 0 C2 1 2 1 2 1 Z " fill="#202060" transform="translate(215,3)"/>
<path d="" fill="#000000" transform="translate(0,0)"/>
<path d="" fill="#000000" transform="translate(0,0)"/>
<path d="" fill="#000000" transform="translate(0,0)"/>
<path d="" fill="#000000" transform="translate(0,0)"/>
<path d="" fill="#000080" transform="translate(0,0)"/>
<path d="" fill="#000000" transform="translate(0,0)"/>
<path d="" fill="#000080" transform="translate(0,0)"/>
<path d="" fill="#000080" transform="translate(0,0)"/>
<path d="" fill="#000000" transform="translate(0,0)"/>
<path d="" fill="#000000" transform="translate(0,0)"/>
<path d="" fill="#555555" transform="translate(0,0)"/>
<path d="" fill="#000000" transform="translate(0,0)"/>
<path d="" fill="#000000" transform="translate(0,0)"/>
<path d="" fill="#000000" transform="translate(0,0)"/>
<path d="" fill="#000000" transform="translate(0,0)"/>
<path d="" fill="#555555" transform="translate(0,0)"/>
<path d="" fill="#000000" transform="translate(0,0)"/>
<path d="" fill="#000080" transform="translate(0,0)"/>
<path d="" fill="#000000" transform="translate(0,0)"/>
<path d="" fill="#000000" transform="translate(0,0)"/>
<path d="" fill="#000000" transform="translate(0,0)"/>
<path d="" fill="#000000" transform="translate(0,0)"/>
<path d="" fill="#000080" transform="translate(0,0)"/>
<path d="" fill="#000000" transform="translate(0,0)"/>
<path d="" fill="#000080" transform="translate(0,0)"/>
<path d="" fill="#000000" transform="translate(0,0)"/>
<path d="" fill="#000080" transform="translate(0,0)"/>
<path d="" fill="#000000" transform="translate(0,0)"/>
<path d="" fill="#000080" transform="translate(0,0)"/>
<path d="" fill="#000000" transform="translate(0,0)"/>
<path d="" fill="#000000" transform="translate(0,0)"/>
<path d="" fill="#000080" transform="translate(0,0)"/>
<path d="" fill="#000000" transform="translate(0,0)"/>
<path d="" fill="#000000" transform="translate(0,0)"/>
<path d="" fill="#000000" transform="translate(0,0)"/>
<path d="" fill="#000080" transform="translate(0,0)"/>
<path d="" fill="#000000" transform="translate(0,0)"/>
<path d="" fill="#000000" transform="translate(0,0)"/>
<path d="" fill="#000000" transform="translate(0,0)"/>
<path d="" fill="#555555" transform="translate(0,0)"/>
<path d="" fill="#000080" transform="translate(0,0)"/>
<path d="" fill="#000080" transform="translate(0,0)"/>
<path d="" fill="#000000" transform="translate(0,0)"/>
<path d="" fill="#000080" transform="translate(0,0)"/>
<path d="" fill="#000000" transform="translate(0,0)"/>
<path d="" fill="#000000" transform="translate(0,0)"/>
<path d="" fill="#000080" transform="translate(0,0)"/>
<path d="" fill="#000000" transform="translate(0,0)"/>
<path d="" fill="#000000" transform="translate(0,0)"/>
<path d="" fill="#000000" transform="translate(0,0)"/>
<path d="" fill="#000000" transform="translate(0,0)"/>
<path d="" fill="#000000" transform="translate(0,0)"/>
<path d="" fill="#000080" transform="translate(0,0)"/>
<path d="" fill="#000000" transform="translate(0,0)"/>
<path d="" fill="#404040" transform="translate(0,0)"/>
<path d="" fill="#000080" transform="translate(0,0)"/>
<path d="" fill="#000000" transform="translate(0,0)"/>
<path d="" fill="#000000" transform="translate(0,0)"/>
<path d="" fill="#000000" transform="translate(0,0)"/>
<path d="" fill="#000000" transform="translate(0,0)"/>
<path d="" fill="#000080" transform="translate(0,0)"/>
<path d="" fill="#000000" transform="translate(0,0)"/>
<path d="" fill="#555555" transform="translate(0,0)"/>
<path d="" fill="#000000" transform="translate(0,0)"/>
<path d="" fill="#000080" transform="translate(0,0)"/>
<path d="" fill="#000000" transform="translate(0,0)"/>
<path d="" fill="#000000" transform="translate(0,0)"/>
<path d="" fill="#000080" transform="translate(0,0)"/>
<path d="" fill="#000000" transform="translate(0,0)"/>
<path d="" fill="#000000" transform="translate(0,0)"/>
<path d="" fill="#000000" transform="translate(0,0)"/>
<path d="" fill="#000000" transform="translate(0,0)"/>
<path d="" fill="#000080" transform="translate(0,0)"/>
<path d="" fill="#000000" transform="translate(0,0)"/>
<path d="" fill="#000000" transform="translate(0,0)"/>
<path d="" fill="#555555" transform="translate(0,0)"/>
<path d="" fill="#000080" transform="translate(0,0)"/>
<path d="" fill="#000080" transform="translate(0,0)"/>
<path d="" fill="#000080" transform="translate(0,0)"/>
<path d="" fill="#000000" transform="translate(0,0)"/>
<path d="" fill="#000080" transform="translate(0,0)"/>
<path d="" fill="#000080" transform="translate(0,0)"/>
<path d="" fill="#000080" transform="translate(0,0)"/>
<path d="" fill="#000000" transform="translate(0,0)"/>
<path d="" fill="#000000" transform="translate(0,0)"/>
<path d="" fill="#000000" transform="translate(0,0)"/>
<path d="" fill="#000080" transform="translate(0,0)"/>
<path d="" fill="#000000" transform="translate(0,0)"/>
<path d="" fill="#000080" transform="translate(0,0)"/>
<path d="" fill="#000080" transform="translate(0,0)"/>
<path d="" fill="#000000" transform="translate(0,0)"/>
<path d="" fill="#000000" transform="translate(0,0)"/>
<path d="" fill="#000000" transform="translate(0,0)"/>
<path d="" fill="#000000" transform="translate(0,0)"/>
<path d="" fill="#000000" transform="translate(0,0)"/>
<path d="" fill="#000000" transform="translate(0,0)"/>
<path d="" fill="#333366" transform="translate(0,0)"/>
<path d="" fill="#000000" transform="translate(0,0)"/>
<path d="" fill="#000000" transform="translate(0,0)"/>
<path d="" fill="#000000" transform="translate(0,0)"/>
<path d="" fill="#000080" transform="translate(0,0)"/>
<path d="" fill="#000000" transform="translate(0,0)"/>
<path d="" fill="#000000" transform="translate(0,0)"/>
<path d="" fill="#000000" transform="translate(0,0)"/>
<path d="" fill="#000000" transform="translate(0,0)"/>
<path d="" fill="#000000" transform="translate(0,0)"/>
<path d="" fill="#000000" transform="translate(0,0)"/>
<path d="" fill="#000000" transform="translate(0,0)"/>
<path d="" fill="#000000" transform="translate(0,0)"/>
<path d="" fill="#000080" transform="translate(0,0)"/>
<path d="" fill="#000080" transform="translate(0,0)"/>
<path d="" fill="#333333" transform="translate(0,0)"/>
<path d="" fill="#000000" transform="translate(0,0)"/>
<path d="" fill="#000000" transform="translate(0,0)"/>
<path d="" fill="#000000" transform="translate(0,0)"/>
<path d="" fill="#000000" transform="translate(0,0)"/>
<path d="" fill="#000080" transform="translate(0,0)"/>
<path d="" fill="#000000" transform="translate(0,0)"/>
<path d="" fill="#000000" transform="translate(0,0)"/>
<path d="" fill="#000000" transform="translate(0,0)"/>
<path d="" fill="#000080" transform="translate(0,0)"/>
<path d="" fill="#000000" transform="translate(0,0)"/>
<path d="" fill="#000000" transform="translate(0,0)"/>
<path d="" fill="#000000" transform="translate(0,0)"/>
<path d="" fill="#000080" transform="translate(0,0)"/>
<path d="" fill="#000080" transform="translate(0,0)"/>
<path d="" fill="#000000" transform="translate(0,0)"/>
<path d="" fill="#000000" transform="translate(0,0)"/>
<path d="" fill="#000000" transform="translate(0,0)"/>
<path d="" fill="#000000" transform="translate(0,0)"/>
<path d="" fill="#000000" transform="translate(0,0)"/>
<path d="" fill="#000000" transform="translate(0,0)"/>
<path d="" fill="#000000" transform="translate(0,0)"/>
<path d="" fill="#000000" transform="translate(0,0)"/>
<path d="" fill="#000000" transform="translate(0,0)"/>
<path d="" fill="#000000" transform="translate(0,0)"/>
<path d="" fill="#000000" transform="translate(0,0)"/>
<path d="" fill="#555555" transform="translate(0,0)"/>
<path d="" fill="#000000" transform="translate(0,0)"/>
<path d="" fill="#000000" transform="translate(0,0)"/>
<path d="" fill="#404040" transform="translate(0,0)"/>
<path d="" fill="#000080" transform="translate(0,0)"/>
<path d="" fill="#000000" transform="translate(0,0)"/>
<path d="" fill="#000080" transform="translate(0,0)"/>
<path d="" fill="#404040" transform="translate(0,0)"/>
<path d="" fill="#000080" transform="translate(0,0)"/>
<path d="" fill="#000000" transform="translate(0,0)"/>
<path d="" fill="#000000" transform="translate(0,0)"/>
<path d="" fill="#000000" transform="translate(0,0)"/>
<path d="" fill="#000000" transform="translate(0,0)"/>
<path d="" fill="#000000" transform="translate(0,0)"/>
<path d="" fill="#000000" transform="translate(0,0)"/>
<path d="" fill="#000000" transform="translate(0,0)"/>
<path d="" fill="#000000" transform="translate(0,0)"/>
<path d="" fill="#000000" transform="translate(0,0)"/>
<path d="" fill="#000000" transform="translate(0,0)"/>
<path d="" fill="#000080" transform="translate(0,0)"/>
<path d="" fill="#000000" transform="translate(0,0)"/>
<path d="" fill="#000000" transform="translate(0,0)"/>
<path d="" fill="#000000" transform="translate(0,0)"/>
<path d="" fill="#555555" transform="translate(0,0)"/>
<path d="" fill="#000000" transform="translate(0,0)"/>
<path d="" fill="#000000" transform="translate(0,0)"/>
<path d="" fill="#000000" transform="translate(0,0)"/>
<path d="" fill="#000000" transform="translate(0,0)"/>
<path d="" fill="#555555" transform="translate(0,0)"/>
<path d="" fill="#555555" transform="translate(0,0)"/>
<path d="" fill="#000080" transform="translate(0,0)"/>
<path d="" fill="#000080" transform="translate(0,0)"/>
<path d="" fill="#000000" transform="translate(0,0)"/>
<path d="" fill="#000000" transform="translate(0,0)"/>
<path d="" fill="#000000" transform="translate(0,0)"/>
<path d="" fill="#000000" transform="translate(0,0)"/>
<path d="" fill="#000080" transform="translate(0,0)"/>
<path d="" fill="#000000" transform="translate(0,0)"/>
<path d="" fill="#555555" transform="translate(0,0)"/>
<path d="" fill="#000000" transform="translate(0,0)"/>
<path d="" fill="#000000" transform="translate(0,0)"/>
<path d="" fill="#000000" transform="translate(0,0)"/>
<path d="" fill="#000000" transform="translate(0,0)"/>
<path d="" fill="#000000" transform="translate(0,0)"/>
<path d="" fill="#000000" transform="translate(0,0)"/>
<path d="" fill="#000000" transform="translate(0,0)"/>
<path d="" fill="#000000" transform="translate(0,0)"/>
<path d="" fill="#000000" transform="translate(0,0)"/>
<path d="" fill="#000000" transform="translate(0,0)"/>
<path d="" fill="#000000" transform="translate(0,0)"/>
<path d="" fill="#000000" transform="translate(0,0)"/>
<path d="" fill="#000000" transform="translate(0,0)"/>
<path d="" fill="#555555" transform="translate(0,0)"/>
<path d="" fill="#000000" transform="translate(0,0)"/>
<path d="" fill="#000080" transform="translate(0,0)"/>
<path d="" fill="#000000" transform="translate(0,0)"/>
<path d="" fill="#000080" transform="translate(0,0)"/>
<path d="" fill="#000000" transform="translate(0,0)"/>
<path d="" fill="#000000" transform="translate(0,0)"/>
<path d="" fill="#000000" transform="translate(0,0)"/>
<path d="" fill="#000000" transform="translate(0,0)"/>
<path d="" fill="#000000" transform="translate(0,0)"/>
<path d="" fill="#000080" transform="translate(0,0)"/>
<path d="" fill="#000000" transform="translate(0,0)"/>
<path d="" fill="#000000" transform="translate(0,0)"/>
<path d="" fill="#000000" transform="translate(0,0)"/>
<path d="" fill="#000000" transform="translate(0,0)"/>
<path d="" fill="#000080" transform="translate(0,0)"/>
<path d="" fill="#000000" transform="translate(0,0)"/>
<path d="" fill="#000000" transform="translate(0,0)"/>
<path d="" fill="#000080" transform="translate(0,0)"/>
<path d="" fill="#000000" transform="translate(0,0)"/>
<path d="" fill="#000000" transform="translate(0,0)"/>
<path d="" fill="#000000" transform="translate(0,0)"/>
<path d="" fill="#000000" transform="translate(0,0)"/>
<path d="" fill="#000000" transform="translate(0,0)"/>
<path d="" fill="#000080" transform="translate(0,0)"/>
<path d="" fill="#333366" transform="translate(0,0)"/>
<path d="" fill="#000000" transform="translate(0,0)"/>
<path d="" fill="#000080" transform="translate(0,0)"/>
<path d="" fill="#000000" transform="translate(0,0)"/>
<path d="" fill="#000000" transform="translate(0,0)"/>
<path d="" fill="#000000" transform="translate(0,0)"/>
<path d="" fill="#000000" transform="translate(0,0)"/>
<path d="" fill="#404040" transform="translate(0,0)"/>
<path d="" fill="#000000" transform="translate(0,0)"/>
<path d="" fill="#000080" transform="translate(0,0)"/>
<path d="" fill="#000000" transform="translate(0,0)"/>
<path d="" fill="#000000" transform="translate(0,0)"/>
<path d="" fill="#000080" transform="translate(0,0)"/>
<path d="" fill="#000080" transform="translate(0,0)"/>
<path d="" fill="#000000" transform="translate(0,0)"/>
<path d="" fill="#000000" transform="translate(0,0)"/>
<path d="" fill="#000000" transform="translate(0,0)"/>
<path d="" fill="#000000" transform="translate(0,0)"/>
<path d="" fill="#000000" transform="translate(0,0)"/>
<path d="" fill="#000000" transform="translate(0,0)"/>
<path d="" fill="#000000" transform="translate(0,0)"/>
<path d="" fill="#000000" transform="translate(0,0)"/>
<path d="" fill="#000000" transform="translate(0,0)"/>
<path d="" fill="#000000" transform="translate(0,0)"/>
<path d="" fill="#000000" transform="translate(0,0)"/>
<path d="" fill="#000000" transform="translate(0,0)"/>
<path d="" fill="#555555" transform="translate(0,0)"/>
<path d="" fill="#000080" transform="translate(0,0)"/>
<path d="" fill="#000000" transform="translate(0,0)"/>
<path d="" fill="#000080" transform="translate(0,0)"/>
<path d="" fill="#000080" transform="translate(0,0)"/>
<path d="" fill="#000000" transform="translate(0,0)"/>
<path d="" fill="#000000" transform="translate(0,0)"/>
<path d="" fill="#000080" transform="translate(0,0)"/>
<path d="" fill="#555555" transform="translate(0,0)"/>
<path d="" fill="#000000" transform="translate(0,0)"/>
<path d="" fill="#000000" transform="translate(0,0)"/>
<path d="" fill="#000080" transform="translate(0,0)"/>
<path d="" fill="#000000" transform="translate(0,0)"/>
<path d="" fill="#000080" transform="translate(0,0)"/>
<path d="" fill="#000000" transform="translate(0,0)"/>
<path d="" fill="#000000" transform="translate(0,0)"/>
<path d="" fill="#000000" transform="translate(0,0)"/>
<path d="" fill="#000000" transform="translate(0,0)"/>
<path d="" fill="#555555" transform="translate(0,0)"/>
<path d="" fill="#000000" transform="translate(0,0)"/>
<path d="" fill="#000000" transform="translate(0,0)"/>
<path d="" fill="#000000" transform="translate(0,0)"/>
<path d="" fill="#000000" transform="translate(0,0)"/>
<path d="" fill="#000000" transform="translate(0,0)"/>
<path d="" fill="#000000" transform="translate(0,0)"/>
<path d="" fill="#555555" transform="translate(0,0)"/>
<path d="" fill="#000000" transform="translate(0,0)"/>
<path d="" fill="#000000" transform="translate(0,0)"/>
<path d="" fill="#000080" transform="translate(0,0)"/>
<path d="" fill="#000080" transform="translate(0,0)"/>
<path d="" fill="#000000" transform="translate(0,0)"/>
<path d="" fill="#000000" transform="translate(0,0)"/>
<path d="" fill="#000000" transform="translate(0,0)"/>
<path d="" fill="#000080" transform="translate(0,0)"/>
<path d="" fill="#000080" transform="translate(0,0)"/>
<path d="" fill="#000080" transform="translate(0,0)"/>
<path d="" fill="#000000" transform="translate(0,0)"/>
<path d="" fill="#000000" transform="translate(0,0)"/>
<path d="" fill="#000000" transform="translate(0,0)"/>
<path d="" fill="#000080" transform="translate(0,0)"/>
<path d="" fill="#555555" transform="translate(0,0)"/>
<path d="" fill="#000080" transform="translate(0,0)"/>
<path d="" fill="#000000" transform="translate(0,0)"/>
<path d="" fill="#000000" transform="translate(0,0)"/>
<path d="" fill="#000000" transform="translate(0,0)"/>
<path d="" fill="#000000" transform="translate(0,0)"/>
<path d="" fill="#000000" transform="translate(0,0)"/>
<path d="" fill="#000000" transform="translate(0,0)"/>
<path d="" fill="#000000" transform="translate(0,0)"/>
<path d="" fill="#000000" transform="translate(0,0)"/>
<path d="" fill="#000000" transform="translate(0,0)"/>
<path d="" fill="#000000" transform="translate(0,0)"/>
<path d="" fill="#000000" transform="translate(0,0)"/>
<path d="" fill="#000000" transform="translate(0,0)"/>
<path d="" fill="#000080" transform="translate(0,0)"/>
<path d="" fill="#000000" transform="translate(0,0)"/>
<path d="" fill="#000000" transform="translate(0,0)"/>
<path d="" fill="#000000" transform="translate(0,0)"/>
<path d="" fill="#000080" transform="translate(0,0)"/>
<path d="" fill="#000080" transform="translate(0,0)"/>
<path d="" fill="#000000" transform="translate(0,0)"/>
<path d="" fill="#000000" transform="translate(0,0)"/>
<path d="" fill="#000080" transform="translate(0,0)"/>
<path d="" fill="#000000" transform="translate(0,0)"/>
<path d="" fill="#000000" transform="translate(0,0)"/>
<path d="" fill="#000000" transform="translate(0,0)"/>
<path d="" fill="#000000" transform="translate(0,0)"/>
<path d="" fill="#000000" transform="translate(0,0)"/>
<path d="" fill="#000000" transform="translate(0,0)"/>
<path d="" fill="#000000" transform="translate(0,0)"/>
<path d="" fill="#000000" transform="translate(0,0)"/>
<path d="" fill="#000000" transform="translate(0,0)"/>
<path d="" fill="#000080" transform="translate(0,0)"/>
<path d="" fill="#000080" transform="translate(0,0)"/>
<path d="" fill="#000080" transform="translate(0,0)"/>
<path d="" fill="#000000" transform="translate(0,0)"/>
<path d="" fill="#000000" transform="translate(0,0)"/>
<path d="" fill="#555555" transform="translate(0,0)"/>
<path d="" fill="#000000" transform="translate(0,0)"/>
<path d="" fill="#000000" transform="translate(0,0)"/>
<path d="" fill="#404040" transform="translate(0,0)"/>
<path d="" fill="#000000" transform="translate(0,0)"/>
<path d="" fill="#000000" transform="translate(0,0)"/>
<path d="" fill="#000000" transform="translate(0,0)"/>
<path d="" fill="#000000" transform="translate(0,0)"/>
<path d="" fill="#000080" transform="translate(0,0)"/>
<path d="" fill="#000000" transform="translate(0,0)"/>
<path d="" fill="#000080" transform="translate(0,0)"/>
<path d="" fill="#000000" transform="translate(0,0)"/>
<path d="" fill="#555555" transform="translate(0,0)"/>
<path d="" fill="#000000" transform="translate(0,0)"/>
<path d="" fill="#000080" transform="translate(0,0)"/>
<path d="" fill="#000000" transform="translate(0,0)"/>
<path d="" fill="#000000" transform="translate(0,0)"/>
<path d="" fill="#000000" transform="translate(0,0)"/>
<path d="" fill="#000000" transform="translate(0,0)"/>
<path d="" fill="#000080" transform="translate(0,0)"/>
<path d="" fill="#555555" transform="translate(0,0)"/>
<path d="" fill="#000000" transform="translate(0,0)"/>
<path d="" fill="#000080" transform="translate(0,0)"/>
<path d="" fill="#000000" transform="translate(0,0)"/>
<path d="" fill="#000000" transform="translate(0,0)"/>
<path d="" fill="#000000" transform="translate(0,0)"/>
<path d="" fill="#000080" transform="translate(0,0)"/>
<path d="" fill="#000000" transform="translate(0,0)"/>
<path d="" fill="#000080" transform="translate(0,0)"/>
<path d="" fill="#000000" transform="translate(0,0)"/>
<path d="" fill="#000080" transform="translate(0,0)"/>
<path d="" fill="#000000" transform="translate(0,0)"/>
<path d="" fill="#000000" transform="translate(0,0)"/>
<path d="" fill="#000080" transform="translate(0,0)"/>
<path d="" fill="#000000" transform="translate(0,0)"/>
<path d="" fill="#000000" transform="translate(0,0)"/>
<path d="" fill="#000000" transform="translate(0,0)"/>
<path d="" fill="#000080" transform="translate(0,0)"/>
<path d="" fill="#000000" transform="translate(0,0)"/>
<path d="" fill="#000000" transform="translate(0,0)"/>
<path d="" fill="#000000" transform="translate(0,0)"/>
<path d="" fill="#000000" transform="translate(0,0)"/>
<path d="" fill="#555555" transform="translate(0,0)"/>
<path d="" fill="#000000" transform="translate(0,0)"/>
<path d="" fill="#000000" transform="translate(0,0)"/>
<path d="" fill="#000080" transform="translate(0,0)"/>
<path d="" fill="#555555" transform="translate(0,0)"/>
<path d="" fill="#000080" transform="translate(0,0)"/>
<path d="" fill="#000000" transform="translate(0,0)"/>
<path d="" fill="#000000" transform="translate(0,0)"/>
<path d="" fill="#000000" transform="translate(0,0)"/>
<path d="" fill="#000000" transform="translate(0,0)"/>
<path d="" fill="#000000" transform="translate(0,0)"/>
<path d="" fill="#000000" transform="translate(0,0)"/>
<path d="" fill="#555555" transform="translate(0,0)"/>
<path d="" fill="#000000" transform="translate(0,0)"/>
<path d="" fill="#000080" transform="translate(0,0)"/>
<path d="" fill="#000000" transform="translate(0,0)"/>
<path d="" fill="#000000" transform="translate(0,0)"/>
<path d="" fill="#000080" transform="translate(0,0)"/>
<path d="" fill="#000000" transform="translate(0,0)"/>
<path d="" fill="#000080" transform="translate(0,0)"/>
<path d="" fill="#555555" transform="translate(0,0)"/>
<path d="" fill="#000000" transform="translate(0,0)"/>
<path d="" fill="#000080" transform="translate(0,0)"/>
<path d="" fill="#000000" transform="translate(0,0)"/>
<path d="" fill="#000080" transform="translate(0,0)"/>
<path d="" fill="#000080" transform="translate(0,0)"/>
<path d="" fill="#000000" transform="translate(0,0)"/>
<path d="" fill="#000080" transform="translate(0,0)"/>
<path d="" fill="#000000" transform="translate(0,0)"/>
<path d="" fill="#000000" transform="translate(0,0)"/>
<path d="" fill="#000080" transform="translate(0,0)"/>
<path d="" fill="#000000" transform="translate(0,0)"/>
<path d="" fill="#008080" transform="translate(0,0)"/>
<path d="" fill="#000000" transform="translate(0,0)"/>
<path d="" fill="#000000" transform="translate(0,0)"/>
<path d="" fill="#000000" transform="translate(0,0)"/>
<path d="" fill="#000080" transform="translate(0,0)"/>
<path d="" fill="#000000" transform="translate(0,0)"/>
<path d="" fill="#000000" transform="translate(0,0)"/>
<path d="" fill="#000000" transform="translate(0,0)"/>
<path d="" fill="#000000" transform="translate(0,0)"/>
<path d="" fill="#000080" transform="translate(0,0)"/>
<path d="" fill="#000000" transform="translate(0,0)"/>
<path d="" fill="#000000" transform="translate(0,0)"/>
<path d="" fill="#000000" transform="translate(0,0)"/>
<path d="" fill="#000000" transform="translate(0,0)"/>
<path d="" fill="#000080" transform="translate(0,0)"/>
<path d="" fill="#000000" transform="translate(0,0)"/>
<path d="" fill="#000000" transform="translate(0,0)"/>
<path d="" fill="#008080" transform="translate(0,0)"/>
<path d="" fill="#000000" transform="translate(0,0)"/>
<path d="" fill="#000000" transform="translate(0,0)"/>
<path d="" fill="#000000" transform="translate(0,0)"/>
<path d="" fill="#404040" transform="translate(0,0)"/>
<path d="" fill="#000000" transform="translate(0,0)"/>
<path d="" fill="#000000" transform="translate(0,0)"/>
<path d="" fill="#000000" transform="translate(0,0)"/>
<path d="" fill="#000000" transform="translate(0,0)"/>
<path d="" fill="#000000" transform="translate(0,0)"/>
<path d="" fill="#000000" transform="translate(0,0)"/>
<path d="" fill="#008080" transform="translate(0,0)"/>
<path d="" fill="#000000" transform="translate(0,0)"/>
<path d="" fill="#000000" transform="translate(0,0)"/>
<path d="" fill="#000000" transform="translate(0,0)"/>
<path d="" fill="#000000" transform="translate(0,0)"/>
<path d="" fill="#000000" transform="translate(0,0)"/>
<path d="" fill="#000000" transform="translate(0,0)"/>
<path d="" fill="#000000" transform="translate(0,0)"/>
<path d="" fill="#000000" transform="translate(0,0)"/>
<path d="" fill="#000000" transform="translate(0,0)"/>
<path d="" fill="#000000" transform="translate(0,0)"/>
<path d="" fill="#008080" transform="translate(0,0)"/>
<path d="" fill="#000000" transform="translate(0,0)"/>
<path d="" fill="#000000" transform="translate(0,0)"/>
<path d="" fill="#000000" transform="translate(0,0)"/>
<path d="" fill="#000000" transform="translate(0,0)"/>
<path d="" fill="#000000" transform="translate(0,0)"/>
</svg>
